<svg width="24" height="24" viewBox="0 0 24 24" fill="none" xmlns="http://www.w3.org/2000/svg">
<path fill-rule="evenodd" clip-rule="evenodd" d="M17.1799 4.41C17.1799 3.08 18.2599 2 19.5899 2C20.9199 2 21.9999 3.08 21.9999 4.41C21.9999 5.74 20.9199 6.82 19.5899 6.82C18.2599 6.82 17.1799 5.74 17.1799 4.41ZM13.3298 14.7593L16.2198 11.0303L16.1798 11.0503C16.3398 10.8303 16.3698 10.5503 16.2598 10.3003C16.1508 10.0503 15.9098 9.8803 15.6508 9.8603C15.3798 9.8303 15.1108 9.9503 14.9498 10.1703L12.5308 13.3003L9.75976 11.1203C9.58976 10.9903 9.38976 10.9393 9.18976 10.9603C8.99076 10.9903 8.81076 11.0993 8.68976 11.2593L5.73076 15.1103L5.66976 15.2003C5.49976 15.5193 5.57976 15.9293 5.87976 16.1503C6.01976 16.2403 6.16976 16.3003 6.33976 16.3003C6.57076 16.3103 6.78976 16.1893 6.92976 16.0003L9.43976 12.7693L12.2898 14.9103L12.3798 14.9693C12.6998 15.1393 13.0998 15.0603 13.3298 14.7593ZM15.4498 3.7803C15.4098 4.0303 15.3898 4.2803 15.3898 4.5303C15.3898 6.7803 17.2098 8.5993 19.4498 8.5993C19.6998 8.5993 19.9398 8.5703 20.1898 8.5303V16.5993C20.1898 19.9903 18.1898 22.0003 14.7898 22.0003H7.40076C3.99976 22.0003 1.99976 19.9903 1.99976 16.5993V9.2003C1.99976 5.8003 3.99976 3.7803 7.40076 3.7803H15.4498Z" fill="#212121"/>
</svg>
