<svg width="25" height="25" viewBox="0 0 25 25" fill="none" xmlns="http://www.w3.org/2000/svg">
<g clip-path="url(#clip0_1403_24102)">
<path d="M17.2729 0.762011C17.2219 0.705011 15.3844 0.784511 13.7854 2.52001C12.1864 4.25401 12.4324 6.24301 12.4684 6.29401C12.5044 6.34501 14.7484 6.42451 16.1809 4.40701C17.6134 2.38951 17.3239 0.820511 17.2729 0.762011ZM22.2439 18.3615C22.1719 18.2175 18.7564 16.5105 19.0744 13.2285C19.3924 9.94501 21.5869 9.04501 21.6214 8.94751C21.6559 8.85001 20.7259 7.76251 19.7404 7.21201C19.0168 6.82389 18.216 6.60152 17.3959 6.56101C17.2339 6.55651 16.6714 6.41851 15.5149 6.73501C14.7529 6.94351 13.0354 7.61851 12.5629 7.64551C12.0889 7.67251 10.6789 6.86251 9.16239 6.64801C8.19189 6.46051 7.16289 6.84451 6.42639 7.14001C5.69139 7.43401 4.29339 8.27101 3.31539 10.4955C2.33739 12.7185 2.84889 16.2405 3.21489 17.3355C3.58089 18.429 4.15239 20.2215 5.12439 21.5295C5.98839 23.0055 7.13439 24.03 7.61289 24.378C8.09139 24.726 9.44139 24.957 10.3774 24.4785C11.1304 24.0165 12.4894 23.751 13.0264 23.7705C13.5619 23.79 14.6179 24.0015 15.6994 24.579C16.5559 24.8745 17.3659 24.7515 18.1774 24.4215C18.9889 24.09 20.1634 22.833 21.5344 20.2845C22.0549 19.0995 22.2919 18.459 22.2439 18.3615Z" fill="white"/>
<path d="M17.2729 0.762011C17.2219 0.705011 15.3844 0.784511 13.7854 2.52001C12.1864 4.25401 12.4324 6.24301 12.4684 6.29401C12.5044 6.34501 14.7484 6.42451 16.1809 4.40701C17.6134 2.38951 17.3239 0.820511 17.2729 0.762011ZM22.2439 18.3615C22.1719 18.2175 18.7564 16.5105 19.0744 13.2285C19.3924 9.94501 21.5869 9.04501 21.6214 8.94751C21.6559 8.85001 20.7259 7.76251 19.7404 7.21201C19.0168 6.82389 18.216 6.60152 17.3959 6.56101C17.2339 6.55651 16.6714 6.41851 15.5149 6.73501C14.7529 6.94351 13.0354 7.61851 12.5629 7.64551C12.0889 7.67251 10.6789 6.86251 9.16239 6.64801C8.19189 6.46051 7.16289 6.84451 6.42639 7.14001C5.69139 7.43401 4.29339 8.27101 3.31539 10.4955C2.33739 12.7185 2.84889 16.2405 3.21489 17.3355C3.58089 18.429 4.15239 20.2215 5.12439 21.5295C5.98839 23.0055 7.13439 24.03 7.61289 24.378C8.09139 24.726 9.44139 24.957 10.3774 24.4785C11.1304 24.0165 12.4894 23.751 13.0264 23.7705C13.5619 23.79 14.6179 24.0015 15.6994 24.579C16.5559 24.8745 17.3659 24.7515 18.1774 24.4215C18.9889 24.09 20.1634 22.833 21.5344 20.2845C22.0549 19.0995 22.2919 18.459 22.2439 18.3615Z" fill="white"/>
</g>
<defs>
<clipPath id="clip0_1403_24102">
<rect width="24" height="24" fill="white" transform="translate(0.5 0.75)"/>
</clipPath>
</defs>
</svg>
