<svg width="24" height="24" viewBox="0 0 24 24" fill="none" xmlns="http://www.w3.org/2000/svg">
<g id="Iconly/Light-Outline/Arrow - Right Circle">
<g id="Arrow - Right Circle">
<path id="Fill 1" fill-rule="evenodd" clip-rule="evenodd" d="M12 3.5C7.313 3.5 3.5 7.313 3.5 12C3.5 16.687 7.313 20.5 12 20.5C16.687 20.5 20.5 16.687 20.5 12C20.5 7.313 16.687 3.5 12 3.5ZM12 22C6.486 22 2 17.514 2 12C2 6.486 6.486 2 12 2C17.514 2 22 6.486 22 12C22 17.514 17.514 22 12 22Z" fill="#212121"/>
<path id="Fill 3" fill-rule="evenodd" clip-rule="evenodd" d="M10.5587 16.2207C10.3667 16.2207 10.1737 16.1477 10.0277 15.9997C9.7357 15.7057 9.7367 15.2317 10.0297 14.9397L12.9817 11.9997L10.0297 9.06068C9.7367 8.76868 9.7357 8.29368 10.0277 7.99968C10.3197 7.70468 10.7937 7.70668 11.0877 7.99768L14.5737 11.4687C14.7147 11.6097 14.7937 11.8007 14.7937 11.9997C14.7937 12.1997 14.7147 12.3907 14.5737 12.5317L11.0877 16.0017C10.9417 16.1477 10.7497 16.2207 10.5587 16.2207Z" fill="#212121"/>
</g>
</g>
</svg>
