<svg width="24" height="24" viewBox="0 0 24 24" fill="none" xmlns="http://www.w3.org/2000/svg">
<g id="Iconly/Light-Outline/Arrow - Left Circle">
<g id="Arrow - Left Circle">
<path id="Fill 1" fill-rule="evenodd" clip-rule="evenodd" d="M12 3.5C7.313 3.5 3.5 7.313 3.5 12C3.5 16.687 7.313 20.5 12 20.5C16.687 20.5 20.5 16.687 20.5 12C20.5 7.313 16.687 3.5 12 3.5ZM12 22C6.486 22 2 17.514 2 12C2 6.486 6.486 2 12 2C17.514 2 22 6.486 22 12C22 17.514 17.514 22 12 22Z" fill="#212121"/>
<path id="Fill 3" fill-rule="evenodd" clip-rule="evenodd" d="M13.4423 16.2207C13.2513 16.2207 13.0593 16.1477 12.9133 16.0017L9.4263 12.5317C9.2853 12.3907 9.2063 12.1997 9.2063 11.9997C9.2063 11.8007 9.2853 11.6097 9.4263 11.4687L12.9133 7.99768C13.2063 7.70568 13.6803 7.70568 13.9733 7.99968C14.2663 8.29368 14.2643 8.76868 13.9713 9.06068L11.0193 11.9997L13.9713 14.9397C14.2643 15.2317 14.2663 15.7057 13.9733 15.9997C13.8273 16.1477 13.6343 16.2207 13.4423 16.2207Z" fill="#212121"/>
</g>
</g>
</svg>
