<svg width="24" height="24" viewBox="0 0 24 24" fill="none" xmlns="http://www.w3.org/2000/svg">
<g id="Iconly/Light-Outline/Arrow - Right Square">
<g id="Arrow - Right Square">
<path id="Fill 1" fill-rule="evenodd" clip-rule="evenodd" d="M7.916 3.5C5.233 3.5 3.5 5.135 3.5 7.665V16.334C3.5 18.864 5.233 20.5 7.916 20.5H16.084C18.767 20.5 20.5 18.864 20.5 16.334V7.665C20.5 5.135 18.767 3.5 16.084 3.5H7.916ZM16.084 22H7.916C4.378 22 2 19.723 2 16.334V7.665C2 4.276 4.378 2 7.916 2H16.084C19.622 2 22 4.276 22 7.665V16.334C22 19.723 19.622 22 16.084 22Z" fill="#212121"/>
<path id="Fill 3" fill-rule="evenodd" clip-rule="evenodd" d="M16.0858 12.75H7.91382C7.49982 12.75 7.16382 12.414 7.16382 12C7.16382 11.586 7.49982 11.25 7.91382 11.25H16.0858C16.4998 11.25 16.8358 11.586 16.8358 12C16.8358 12.414 16.4998 12.75 16.0858 12.75Z" fill="#212121"/>
<path id="Fill 5" fill-rule="evenodd" clip-rule="evenodd" d="M12.3224 16.4979C12.1304 16.4979 11.9374 16.4249 11.7914 16.2769C11.4994 15.9829 11.5004 15.5089 11.7934 15.2169L15.0234 11.9999L11.7934 8.78295C11.5004 8.49095 11.4994 8.01695 11.7914 7.72295C12.0834 7.42895 12.5574 7.42895 12.8514 7.72095L16.6154 11.4689C16.7574 11.6089 16.8364 11.8009 16.8364 11.9999C16.8364 12.1989 16.7574 12.3909 16.6154 12.5309L12.8514 16.2789C12.7054 16.4249 12.5134 16.4979 12.3224 16.4979Z" fill="#212121"/>
</g>
</g>
</svg>
