<svg width="24" height="24" viewBox="0 0 24 24" fill="none" xmlns="http://www.w3.org/2000/svg">
<path fill-rule="evenodd" clip-rule="evenodd" d="M21.3749 3.86948V3.85931C21.7019 3.51374 21.7019 2.97505 21.3749 2.62948C21.2163 2.46685 20.9982 2.3642 20.7702 2.3642C20.5423 2.3642 20.3242 2.46685 20.1755 2.62948L2.21535 21.0567C2.18562 21.0872 2.16579 21.1167 2.14597 21.1482L2.11623 21.1888C1.92791 21.5141 1.96756 21.9511 2.24509 22.2459C2.4235 22.4085 2.63165 22.5 2.84971 22.5C3.06777 22.5 3.27591 22.4085 3.44441 22.2459L8.80607 16.7478C16.2065 23.9875 18.6904 21.3327 19.2652 20.7184C19.3032 20.6777 19.3329 20.646 19.3551 20.6266C22.0221 17.9051 21.2877 17.1915 19.4481 15.4043L19.4481 15.4043C19.1913 15.1547 18.9129 14.8842 18.6192 14.5844C17.5132 13.4605 16.724 13.7446 15.8469 14.0604C14.8813 14.408 13.8092 14.7939 12.0904 13.3824L11.5626 13.9212L11.9586 13.5151L21.3749 3.86948ZM6.18525 14.2053C0.192328 7.41506 2.57581 5.0604 3.15895 4.48431C3.20162 4.44215 3.23466 4.40951 3.25406 4.38536C5.94103 1.6602 6.64023 2.40731 8.39096 4.27801C8.63969 4.54378 8.90964 4.83222 9.20953 5.13661C10.315 6.26403 10.0387 7.07031 9.73138 7.96734C9.47405 8.71836 9.19492 9.53299 9.6866 10.6529L6.18525 14.2053Z" fill="#212121"/>
</svg>
