<svg width="24" height="24" viewBox="0 0 24 24" fill="none" xmlns="http://www.w3.org/2000/svg">
<path d="M22.5315 6.76C22.5699 6.8992 22.5214 7.0528 22.4403 7.1728L19.8531 11.0224C19.7571 11.1712 19.5555 11.2528 19.387 11.2528C19.339 11.2528 19.2046 11.2432 19.1523 11.2288L17.0787 10.72V19.84C17.0787 20.1184 16.8819 20.32 16.5987 20.32H6.51867C6.23547 20.32 6.03867 20.1184 6.03867 19.84V10.72L4.17627 11.2336C3.96027 11.3008 3.77307 11.2144 3.65307 11.0272L1.08507 7.1872C1.00347 7.0624 0.979465 6.9232 1.01787 6.784C1.05147 6.64 1.15227 6.544 1.28187 6.4768L6.51867 4H8.91867C9.20187 4 9.39867 4.1968 9.39867 4.48C9.39867 5.4688 10.7859 6.1696 11.7747 6.1696C12.7635 6.1696 14.1987 5.4736 14.1987 4.48C14.1987 4.2016 14.3955 4 14.6787 4H17.0787L22.2627 6.4288C22.3971 6.496 22.4931 6.616 22.5315 6.76Z" fill="#212121"/>
</svg>
