<svg width="330" height="250" viewBox="0 0 330 250" fill="none" xmlns="http://www.w3.org/2000/svg">
<g clip-path="url(#clip0_1344_69099)">
<path d="M132.189 51.8442H130.991V19.0059C130.991 16.51 130.499 14.0386 129.544 11.7327C128.589 9.42678 127.189 7.33158 125.424 5.56672C123.659 3.80185 121.564 2.40189 119.258 1.44675C116.952 0.491608 114.481 2.11472e-06 111.985 0H42.4122C37.3715 -9.60927e-06 32.5373 2.00238 28.973 5.56668C25.4087 9.13097 23.4063 13.9652 23.4063 19.0059V199.159C23.4062 201.655 23.8979 204.127 24.853 206.433C25.8081 208.739 27.2081 210.834 28.9729 212.599C30.7378 214.364 32.833 215.764 35.1389 216.719C37.4448 217.674 39.9163 218.165 42.4122 218.165H111.985C117.025 218.165 121.859 216.163 125.424 212.599C128.988 209.034 130.991 204.2 130.991 199.16V75.2191H132.189V51.8442Z" fill="#3F3D56"/>
<path d="M154.489 218.197H1.10765C1.00088 218.197 0.898487 218.154 0.82299 218.079C0.747492 218.003 0.705078 217.901 0.705078 217.794C0.705078 217.687 0.747492 217.585 0.82299 217.509C0.898487 217.434 1.00088 217.391 1.10765 217.391H154.489C154.596 217.391 154.698 217.434 154.774 217.509C154.849 217.585 154.892 217.687 154.892 217.794C154.892 217.901 154.849 218.003 154.774 218.079C154.698 218.154 154.596 218.197 154.489 218.197Z" fill="#616161"/>
<path d="M280.192 221.538C280.606 220.869 281.093 220.249 281.644 219.688C281.871 219.452 282.111 219.23 282.358 219.014C283.861 217.676 285.694 216.763 287.667 216.368C289.64 215.973 291.683 216.111 293.585 216.767C295.487 217.423 297.181 218.574 298.49 220.102C299.8 221.629 300.68 223.478 301.038 225.458C302.699 219.318 298.377 213.27 294.031 208.624C289.684 203.98 284.714 198.885 284.739 192.522C284.751 188.981 286.484 185.822 289.099 183.48C289.18 183.409 289.26 183.338 289.343 183.27C292.504 180.56 296.57 179.143 300.731 179.301C308.46 179.715 315.208 184.91 319.895 191.071C327.439 200.986 330.745 214.902 325.463 226.189C320.818 236.115 310.911 242.009 300.8 246.748C299.388 247.409 297.979 248.051 296.572 248.673C296.563 248.676 296.553 248.682 296.543 248.685C296.476 248.715 296.408 248.744 296.345 248.775C296.054 248.903 295.764 249.031 295.476 249.158L295.61 249.245L296.025 249.514C295.881 249.427 295.739 249.342 295.594 249.255C295.552 249.228 295.506 249.203 295.464 249.177C290.497 246.197 285.462 243.045 282.031 238.393C278.473 233.563 277.043 226.644 280.192 221.538Z" fill="#35383F"/>
<path d="M313.324 210.321C314.424 212.822 315.153 215.471 315.488 218.183C315.752 220.601 315.653 223.045 315.194 225.434C314.208 230.343 312.057 234.944 308.923 238.849C306.558 241.814 303.828 244.468 300.798 246.748C299.386 247.409 297.977 248.051 296.571 248.673C296.562 248.676 296.551 248.682 296.542 248.685C296.474 248.715 296.407 248.744 296.343 248.775C296.053 248.903 295.763 249.031 295.475 249.158L295.608 249.245L296.024 249.514C295.88 249.427 295.737 249.342 295.593 249.255C295.55 249.228 295.505 249.203 295.462 249.177C296.555 245.354 296.716 241.325 295.931 237.427C295.146 233.529 293.438 229.877 290.95 226.775C288.449 223.712 285.26 221.284 281.643 219.688C281.87 219.452 282.109 219.23 282.357 219.014C283.75 219.654 285.084 220.416 286.344 221.291C290.847 224.403 294.229 228.884 295.989 234.068C297.559 238.772 297.756 243.826 296.554 248.637C296.804 248.474 297.054 248.307 297.297 248.14C301.923 245.02 306.187 241.273 309.399 236.679C312.169 232.795 313.941 228.29 314.561 223.561C315.176 218.394 313.883 213.314 311.577 208.704C309.03 203.772 305.82 199.211 302.037 195.149C298.238 190.974 293.942 187.281 289.245 184.15C289.139 184.078 289.065 183.969 289.037 183.844C289.01 183.72 289.031 183.589 289.097 183.48C289.148 183.38 289.235 183.305 289.341 183.27C289.395 183.256 289.451 183.254 289.505 183.265C289.56 183.276 289.611 183.3 289.655 183.333C290.235 183.72 290.81 184.11 291.378 184.512C296.107 187.861 300.403 191.785 304.165 196.193C307.801 200.443 311.11 205.164 313.324 210.321Z" fill="#1F222A"/>
<path d="M175.51 250H328.892C328.998 250 329.101 249.958 329.176 249.882C329.252 249.807 329.294 249.704 329.294 249.597C329.294 249.491 329.252 249.388 329.176 249.313C329.101 249.237 328.998 249.195 328.892 249.195H175.51C175.403 249.195 175.301 249.237 175.225 249.313C175.15 249.388 175.107 249.491 175.107 249.597C175.107 249.704 175.15 249.807 175.225 249.882C175.301 249.958 175.403 250 175.51 250Z" fill="#616161"/>
<path d="M212.4 217.879L204.963 217.762L205.857 243.111H212.399L212.4 217.879Z" fill="#FFB7B7"/>
<path d="M214.066 240.975L201.183 240.974H201.183C199.005 240.975 196.917 241.84 195.377 243.379C193.838 244.919 192.973 247.007 192.973 249.184V249.451L214.066 249.452L214.066 240.975Z" fill="#2F2E41"/>
<path d="M261.642 211.156L253.518 216.372L269.769 235.923L275.274 232.388L261.642 211.156Z" fill="#FFB7B7"/>
<path d="M275.524 229.69L264.683 236.65L264.682 236.65C262.85 237.826 261.56 239.683 261.097 241.81C260.633 243.937 261.033 246.162 262.209 247.994L262.354 248.219L280.103 236.823L275.524 229.69Z" fill="#2F2E41"/>
<path d="M196.106 150.452C194.715 150.839 193.23 150.701 191.933 150.066C190.636 149.431 189.618 148.342 189.07 147.006C188.522 145.67 188.483 144.18 188.961 142.817C189.439 141.454 190.4 140.314 191.662 139.613L204.183 125.408L214.772 127.696L199.878 142.285C200.244 143.06 200.436 143.907 200.439 144.765C200.443 145.622 200.259 146.47 199.899 147.249C199.539 148.028 199.013 148.718 198.358 149.271C197.703 149.825 196.934 150.228 196.106 150.452H196.106Z" fill="#FFB7B7"/>
<path d="M173.025 124.481C175.456 124.481 177.427 122.51 177.427 120.079C177.427 117.648 175.456 115.677 173.025 115.677C170.594 115.677 168.623 117.648 168.623 120.079C168.623 122.51 170.594 124.481 173.025 124.481Z" fill="#35383F"/>
<path d="M301.849 112.404C304.28 112.404 306.251 110.433 306.251 108.002C306.251 105.571 304.28 103.6 301.849 103.6C299.418 103.6 297.447 105.571 297.447 108.002C297.447 110.433 299.418 112.404 301.849 112.404Z" fill="#35383F"/>
<path d="M112.751 4.9447H103.67C104.087 5.96861 104.247 7.07951 104.134 8.17954C104.021 9.27957 103.64 10.335 103.023 11.2528C102.406 12.1706 101.573 12.9226 100.597 13.4426C99.6211 13.9626 98.5322 14.2346 97.4265 14.2347H57.5693C56.4635 14.2346 55.3747 13.9626 54.3988 13.4426C53.4229 12.9226 52.5898 12.1706 51.973 11.2528C51.3562 10.335 50.9746 9.27958 50.8617 8.17955C50.7489 7.07951 50.9083 5.96861 51.326 4.9447H42.8438C40.9799 4.9447 39.1343 5.31183 37.4122 6.02511C35.6902 6.73839 34.1255 7.78387 32.8076 9.10185C31.4896 10.4198 30.4441 11.9845 29.7308 13.7065C29.0175 15.4285 28.6504 17.2742 28.6504 19.1381V199.027C28.6504 200.891 29.0175 202.737 29.7308 204.459C30.4441 206.181 31.4896 207.746 32.8075 209.064C34.1255 210.382 35.6902 211.427 37.4122 212.14C39.1342 212.854 40.9799 213.221 42.8438 213.221H112.751C114.615 213.221 116.461 212.854 118.183 212.14C119.905 211.427 121.47 210.382 122.788 209.064C124.106 207.746 125.151 206.181 125.864 204.459C126.578 202.737 126.945 200.891 126.945 199.027V19.1381C126.945 17.2742 126.578 15.4285 125.864 13.7065C125.151 11.9845 124.106 10.4198 122.788 9.10185C121.47 7.78387 119.905 6.73839 118.183 6.02511C116.461 5.31183 114.615 4.9447 112.751 4.9447Z" fill="#1F222A"/>
<path d="M77.7988 139.163C96.5743 139.163 111.795 123.942 111.795 105.167C111.795 86.391 96.5743 71.1705 77.7988 71.1705C59.0233 71.1705 43.8027 86.391 43.8027 105.167C43.8027 123.942 59.0233 139.163 77.7988 139.163Z" fill="#35383F"/>
<path d="M74.4296 118.135C73.6648 118.136 72.9203 117.889 72.3084 117.43L72.2705 117.402L64.2809 111.29C63.9109 111.006 63.6004 110.652 63.3671 110.249C63.1338 109.845 62.9823 109.399 62.9212 108.937C62.8601 108.475 62.8907 108.005 63.0112 107.555C63.1317 107.104 63.3397 106.682 63.6234 106.312C63.9071 105.942 64.2609 105.631 64.6645 105.398C65.0682 105.165 65.5139 105.013 65.9762 104.952C66.4384 104.891 66.9082 104.922 67.3586 105.042C67.809 105.163 68.2313 105.371 68.6013 105.654L73.7763 109.623L86.005 93.6691C86.2886 93.2992 86.6422 92.9888 87.0457 92.7556C87.4493 92.5224 87.8948 92.3709 88.3568 92.3099C88.8189 92.2489 89.2884 92.2795 89.7386 92.3999C90.1889 92.5203 90.611 92.7283 90.9809 93.0118L90.9819 93.0126L90.906 93.118L90.9839 93.0126C91.7302 93.5861 92.2184 94.4322 92.3414 95.3653C92.4645 96.2983 92.2124 97.2421 91.6404 97.9895L77.2568 116.746C76.924 117.178 76.4961 117.528 76.0064 117.768C75.5166 118.008 74.9782 118.132 74.4327 118.131L74.4296 118.135Z" fill="#1F222A"/>
<path d="M237.298 99.5994L206.092 138.77L196.58 134.403L233.259 77.2995L237.298 99.5994Z" fill="#3F3D56"/>
<path d="M311.965 38.903C312.166 37.4731 311.836 36.019 311.037 34.8162C310.238 33.6134 309.026 32.7455 307.629 32.377C306.233 32.0085 304.75 32.165 303.462 32.8167C302.173 33.4685 301.168 34.5703 300.638 35.9134L288.191 50.1824L291.843 60.3824L304.361 43.7096C305.178 43.9712 306.042 44.0506 306.893 43.9421C307.743 43.8336 308.56 43.5399 309.285 43.0816C310.01 42.6234 310.626 42.0117 311.089 41.2897C311.552 40.5678 311.851 39.753 311.965 38.903Z" fill="#FFB7B7"/>
<path d="M260.373 94.4239L301.689 50.3301L296.116 41.4702L244.295 85.2963L260.373 94.4239Z" fill="#3F3D56"/>
<path d="M251.151 67.6328C259.155 67.6328 265.644 61.1442 265.644 53.1401C265.644 45.136 259.155 38.6473 251.151 38.6473C243.147 38.6473 236.658 45.136 236.658 53.1401C236.658 61.1442 243.147 67.6328 251.151 67.6328Z" fill="#2F2E41"/>
<path d="M252.316 44.953C255.435 41.7905 259.209 39.3501 263.372 37.8035C266.045 36.8134 268.954 36.2017 271.748 36.764C274.542 37.3263 277.184 39.2592 277.964 42.0006C278.601 44.2423 277.943 46.6559 276.954 48.7661C275.965 50.8763 274.644 52.8331 273.844 55.0221C273.028 57.2556 272.783 59.6576 273.13 62.01C273.478 64.3625 274.407 66.5909 275.835 68.4929C277.262 70.3949 279.141 71.9104 281.303 72.9017C283.464 73.8931 285.839 74.3289 288.212 74.1696C285.467 74.5377 282.936 75.8278 280.253 76.5145C277.569 77.2012 274.402 77.1547 272.408 75.2322C270.298 73.1982 270.256 69.8912 270.358 66.9623C270.509 62.6085 270.661 58.2546 270.813 53.9007C270.89 51.6803 270.956 49.3888 270.155 47.3164C269.355 45.244 267.452 43.4292 265.23 43.4481C263.546 43.4624 262.056 44.4824 260.706 45.4883C259.355 46.4943 257.926 47.5676 256.249 47.7172C254.572 47.8668 252.657 46.6256 252.782 44.9464L252.316 44.953Z" fill="#2F2E41"/>
<path d="M264.536 133.752C264.536 133.752 246.484 73.7974 240.683 72.9872C234.882 72.177 225.535 88.3709 225.535 88.3709C213.416 103.833 200.92 153.919 200.92 153.919C200.92 153.919 221.752 155.222 236.98 163.324C252.208 171.426 270.18 162.914 270.18 162.914L264.536 133.752Z" fill="#3F3D56"/>
<path opacity="0.1" d="M264.536 133.752C264.536 133.752 246.484 73.7974 240.683 72.9872C234.882 72.177 227.909 88.5352 227.909 88.5352C221.87 113.495 200.92 153.919 200.92 153.919C200.92 153.919 221.752 155.222 236.98 163.324C252.208 171.426 270.18 162.914 270.18 162.914L264.536 133.752Z" fill="black"/>
<path d="M249.726 115.814V145.941L253.272 189.582L270.985 222.593L262.531 228.632L238.376 197.231L228.823 166.052L213.819 235.073L202.547 234.268L210.375 138.571L225.231 111.634L249.726 115.814Z" fill="#2F2E41"/>
<path d="M231.525 86.6746C225.889 92.3107 231.123 98.3493 231.123 98.3493L224.682 112.842L250.044 119.686L258.907 80.0811L252.869 73.6399C240.791 73.2373 240.785 72.987 240.785 72.987C238.669 75.0578 231.525 86.6746 231.525 86.6746Z" fill="#35383F"/>
<path d="M259.928 75.9781C258.776 75.1278 257.467 74.5145 256.076 74.1738C254.686 73.833 253.241 73.7716 251.827 73.993C250.412 74.2144 249.056 74.7143 247.836 75.4636C246.616 76.213 245.557 77.197 244.72 78.3586C238.344 87.2363 232.448 101.572 240.571 119.45C253.614 148.158 264.965 162.854 269.579 162.852C269.78 162.854 269.981 162.822 270.172 162.759C273.012 161.796 277.119 156.989 277.862 152.754C278.128 151.238 278.065 149.127 276.252 147.677C271.045 143.511 261.696 130.542 258.78 113.472C257.168 104.04 260.293 95.448 263.199 89.9014C264.426 87.6063 264.785 84.9458 264.21 82.4076C263.635 79.8693 262.165 77.6233 260.068 76.0813L259.928 75.9781Z" fill="#3F3D56"/>
<path d="M251.896 66.2091C257.066 63.383 258.966 56.9009 256.14 51.731C253.314 46.5611 246.832 44.6611 241.662 47.4872C236.492 50.3133 234.592 56.7954 237.418 61.9653C240.244 67.1353 246.726 69.0353 251.896 66.2091Z" fill="#FFB7B7"/>
<path d="M231.775 56.0415H247.18L247.338 53.8298L248.128 56.0415H250.5L250.813 51.658L252.379 56.0415H256.968V55.8243C256.965 52.7726 255.751 49.8468 253.593 47.6889C251.435 45.531 248.51 44.3172 245.458 44.3138H243.286C240.234 44.3172 237.308 45.531 235.151 47.6889C232.993 49.8468 231.779 52.7726 231.775 55.8243V56.0415Z" fill="#2F2E41"/>
<path d="M254.642 63.9913L261.216 61.8582V45.8937H248.799L249.106 46.2007C253.383 50.4724 258.14 65.6278 254.642 63.9913Z" fill="#2F2E41"/>
<path d="M212.075 15.7852C216.063 15.7852 219.295 12.5528 219.295 8.56541C219.295 4.57801 216.063 1.34558 212.075 1.34558C208.088 1.34558 204.855 4.57801 204.855 8.56541C204.855 12.5528 208.088 15.7852 212.075 15.7852Z" fill="#35383F"/>
</g>
<defs>
<clipPath id="clip0_1344_69099">
<rect width="328.589" height="250" fill="white" transform="translate(0.705078)"/>
</clipPath>
</defs>
</svg>
