<svg width="24" height="24" viewBox="0 0 24 24" fill="none" xmlns="http://www.w3.org/2000/svg">
<g id="Iconly/Light-Outline/Danger Circle">
<g id="Danger Circle">
<path id="Fill 1" fill-rule="evenodd" clip-rule="evenodd" d="M12 3.5C7.313 3.5 3.5 7.313 3.5 12C3.5 16.687 7.313 20.5 12 20.5C16.687 20.5 20.5 16.687 20.5 12C20.5 7.313 16.687 3.5 12 3.5ZM12 22C6.486 22 2 17.514 2 12C2 6.486 6.486 2 12 2C17.514 2 22 6.486 22 12C22 17.514 17.514 22 12 22Z" fill="#212121"/>
<path id="Fill 3" fill-rule="evenodd" clip-rule="evenodd" d="M11.9941 13.373C11.5801 13.373 11.2441 13.037 11.2441 12.623V8.20398C11.2441 7.78998 11.5801 7.45398 11.9941 7.45398C12.4081 7.45398 12.7441 7.78998 12.7441 8.20398V12.623C12.7441 13.037 12.4081 13.373 11.9941 13.373Z" fill="#212121"/>
<path id="Fill 5" fill-rule="evenodd" clip-rule="evenodd" d="M12.0038 16.7959C11.4508 16.7959 10.9988 16.3489 10.9988 15.7959C10.9988 15.2429 11.4418 14.7959 11.9938 14.7959H12.0038C12.5568 14.7959 13.0038 15.2429 13.0038 15.7959C13.0038 16.3489 12.5568 16.7959 12.0038 16.7959Z" fill="#212121"/>
</g>
</g>
</svg>
