<svg width="24" height="24" viewBox="0 0 24 24" fill="none" xmlns="http://www.w3.org/2000/svg">
<g id="Iconly/Light-Outline/Discount">
<g id="Discount">
<g id="Group 3">
<mask id="mask0_430_8480" style="mask-type:luminance" maskUnits="userSpaceOnUse" x="2" y="2" width="21" height="21">
<path id="Clip 2" fill-rule="evenodd" clip-rule="evenodd" d="M2.00024 2.00024H22.003V22.0012H2.00024V2.00024Z" fill="white"/>
</mask>
<g mask="url(#mask0_430_8480)">
<path id="Fill 1" fill-rule="evenodd" clip-rule="evenodd" d="M10.945 20.0755C11.535 20.6515 12.485 20.6445 13.071 20.0555L13.793 19.3355C14.353 18.7765 15.127 18.4575 15.916 18.4575H16.946C17.78 18.4575 18.458 17.7795 18.458 16.9465V15.9175C18.458 15.1165 18.768 14.3635 19.334 13.7965L20.054 13.0755C20.347 12.7815 20.504 12.4005 20.503 11.9965C20.502 11.5935 20.343 11.2145 20.056 10.9285L19.335 10.2065C18.768 9.63551 18.458 8.88351 18.458 8.08251V7.05551C18.458 6.22151 17.78 5.54351 16.946 5.54351H15.918C15.117 5.54351 14.364 5.23251 13.797 4.66951L13.075 3.94651C12.474 3.35151 11.515 3.35451 10.928 3.94551L10.209 4.66651C9.63497 5.23351 8.88197 5.54351 8.08397 5.54351H7.05497C6.22197 5.54451 5.54397 6.22251 5.54397 7.05551V8.08051C5.54397 8.88151 5.23297 9.63451 4.66897 10.2025L3.95897 10.9135C3.95197 10.9215 3.94497 10.9275 3.93797 10.9345C3.35097 11.5255 3.35397 12.4845 3.94497 13.0715L4.66697 13.7935C5.23297 14.3615 5.54397 15.1145 5.54397 15.9155V16.9465C5.54397 17.7795 6.22097 18.4575 7.05497 18.4575H8.08197C8.88397 18.4585 9.63697 18.7695 10.204 19.3345L10.925 20.0535C10.931 20.0605 10.938 20.0675 10.945 20.0755ZM11.999 22.0015C11.232 22.0015 10.465 21.7115 9.87797 21.1295C9.86997 21.1215 9.86197 21.1135 9.85397 21.1045L9.14397 20.3955C8.86097 20.1145 8.48297 19.9585 8.08097 19.9575H7.05497C5.39397 19.9575 4.04397 18.6065 4.04397 16.9465V15.9155C4.04397 15.5135 3.88697 15.1365 3.60497 14.8525L2.88597 14.1345C1.71797 12.9725 1.70397 11.0805 2.85097 9.90051C2.85997 9.89151 2.86897 9.88251 2.87797 9.87351L3.60597 9.14351C3.88697 8.86051 4.04397 8.48151 4.04397 8.08051V7.05551C4.04397 5.39551 5.39397 4.04451 7.05397 4.04351H8.08397C8.48497 4.04351 8.86297 3.88651 9.14997 3.60351L9.86497 2.88651C11.034 1.70951 12.945 1.70351 14.124 2.87551L14.855 3.60651C15.138 3.88751 15.516 4.04351 15.918 4.04351H16.946C18.607 4.04351 19.958 5.39451 19.958 7.05551V8.08251C19.958 8.48351 20.114 8.86251 20.397 9.14751L21.115 9.86651C21.684 10.4315 22 11.1865 22.003 11.9915C22.006 12.7965 21.695 13.5535 21.128 14.1245L20.395 14.8555C20.114 15.1385 19.958 15.5155 19.958 15.9175V16.9465C19.958 18.6065 18.607 19.9575 16.947 19.9575H15.916C15.52 19.9575 15.133 20.1175 14.852 20.3965L14.134 21.1145C13.547 21.7055 12.773 22.0015 11.999 22.0015Z" fill="#212121"/>
</g>
</g>
<path id="Fill 4" fill-rule="evenodd" clip-rule="evenodd" d="M9.43041 15.3215C9.23841 15.3215 9.04641 15.2485 8.90041 15.1015C8.60741 14.8085 8.60741 14.3345 8.90041 14.0415L14.0404 8.90054C14.3334 8.60754 14.8084 8.60754 15.1014 8.90054C15.3944 9.19354 15.3944 9.66854 15.1014 9.96154L9.96041 15.1015C9.81441 15.2485 9.62241 15.3215 9.43041 15.3215Z" fill="#212121"/>
<path id="Fill 6" fill-rule="evenodd" clip-rule="evenodd" d="M14.5035 15.4993C13.9505 15.4993 13.4985 15.0523 13.4985 14.4993C13.4985 13.9463 13.9415 13.4993 14.4945 13.4993H14.5035C15.0565 13.4993 15.5035 13.9463 15.5035 14.4993C15.5035 15.0523 15.0565 15.4993 14.5035 15.4993Z" fill="#212121"/>
<path id="Fill 8" fill-rule="evenodd" clip-rule="evenodd" d="M9.50354 10.4993C8.95054 10.4993 8.49854 10.0523 8.49854 9.49927C8.49854 8.94627 8.94154 8.49927 9.49454 8.49927H9.50354C10.0565 8.49927 10.5035 8.94627 10.5035 9.49927C10.5035 10.0523 10.0565 10.4993 9.50354 10.4993Z" fill="#212121"/>
</g>
</g>
</svg>
