<svg width="300" height="300" viewBox="0 0 300 300" fill="none" xmlns="http://www.w3.org/2000/svg">
<path d="M93.1246 61.3563C108.062 52.2563 129.393 47.4188 151.612 48.1563C173.8 48.9 195.943 55.175 212.6 67.2625C214.277 68.4792 216.369 68.9796 218.416 68.6538C220.462 68.328 222.295 67.2025 223.512 65.525C224.729 63.8475 225.229 61.7554 224.903 59.7089C224.577 57.6624 223.452 55.8292 221.775 54.6125C202.025 40.2875 176.65 33.3625 152.137 32.5438C127.668 31.725 103.137 36.9625 84.9996 48.0188C84.0894 48.5351 83.2923 49.229 82.6555 50.0593C82.0187 50.8896 81.5551 51.8394 81.2924 52.8523C81.0296 53.8652 80.9731 54.9205 81.126 55.9557C81.2789 56.9908 81.6382 57.9847 82.1826 58.8784C82.727 59.772 83.4454 60.5472 84.2951 61.1579C85.1448 61.7686 86.1085 62.2023 87.1291 62.4335C88.1496 62.6646 89.2062 62.6883 90.2361 62.5033C91.2661 62.3182 92.2483 61.9282 93.1246 61.3563ZM158.731 68.7812C157.712 68.6606 156.679 68.7418 155.691 69.0203C154.704 69.2988 153.781 69.7691 152.975 70.4043C152.169 71.0395 151.496 71.8272 150.995 72.7224C150.494 73.6177 150.173 74.6029 150.053 75.6219C149.932 76.6408 150.013 77.6736 150.292 78.6612C150.57 79.6488 151.04 80.5718 151.676 81.3777C152.311 82.1835 153.099 82.8563 153.994 83.3578C154.889 83.8592 155.874 84.1793 156.893 84.3C205.825 90.1125 237.668 127.9 246.993 181.037C247.383 183.048 248.546 184.826 250.233 185.987C251.92 187.149 253.996 187.601 256.014 187.247C258.031 186.893 259.829 185.761 261.02 184.095C262.21 182.428 262.699 180.361 262.381 178.337C252.231 120.494 216.412 75.6312 158.731 68.7812ZM116.843 131.781C92.9871 150.875 79.3308 192.219 105.437 244.969C106.34 246.823 106.473 248.96 105.807 250.912C105.141 252.864 103.73 254.473 101.882 255.389C100.034 256.305 97.8984 256.453 95.9417 255.8C93.985 255.148 92.3657 253.748 91.4371 251.906C62.7871 194.025 76.3121 144.2 107.081 119.581C122.325 107.381 141.593 101.675 161.031 104.725C180.531 107.787 199.437 119.55 214.225 140.856C214.83 141.698 215.262 142.652 215.495 143.662C215.728 144.672 215.758 145.719 215.583 146.741C215.407 147.763 215.03 148.739 214.473 149.614C213.916 150.489 213.191 151.244 212.34 151.835C211.488 152.427 210.527 152.843 209.513 153.059C208.499 153.276 207.452 153.288 206.433 153.096C205.415 152.903 204.444 152.51 203.579 151.939C202.714 151.368 201.971 150.63 201.393 149.769C188.681 131.456 173.318 122.475 158.606 120.162C143.818 117.838 128.918 122.119 116.843 131.781ZM146.081 257.469C130.087 225.156 125.206 197.844 128.112 179.762C129.55 170.8 132.8 164.681 136.881 161.006C140.825 157.462 146.318 155.494 153.95 156.212C164.093 157.175 168.843 160.512 171.775 164.494C175.162 169.094 176.95 175.556 178.987 184.762L179.6 187.556C183.381 204.956 188.381 227.912 212.637 245.4C214.318 246.612 216.411 247.106 218.456 246.774C220.502 246.443 222.332 245.312 223.543 243.631C224.755 241.95 225.249 239.857 224.918 237.812C224.586 235.766 223.455 233.937 221.775 232.725C202.462 218.8 198.587 201.175 194.737 183.637L194.237 181.387C192.3 172.625 190 162.887 184.356 155.231C178.256 146.95 169.025 141.95 155.425 140.663C144.112 139.588 134.093 142.506 126.443 149.381C118.937 156.131 114.506 165.944 112.681 177.287C109.068 199.819 115.325 230.55 132.081 264.4C133.033 266.198 134.649 267.554 136.585 268.179C138.522 268.805 140.625 268.65 142.449 267.747C144.273 266.845 145.673 265.267 146.351 263.349C147.029 261.43 146.932 259.323 146.081 257.475V257.469ZM73.0496 68.275C74.42 69.8283 75.1175 71.8624 74.9886 73.9298C74.8596 75.9973 73.9149 77.9289 72.3621 79.3C62.3871 88.1062 55.6558 96.9688 48.9683 108.594C48.4562 109.483 47.7739 110.263 46.9604 110.888C46.1469 111.514 45.2182 111.973 44.2272 112.24C43.2362 112.507 42.2024 112.575 41.1848 112.443C40.1672 112.31 39.1858 111.978 38.2965 111.466C37.4072 110.953 36.6275 110.271 36.0018 109.458C35.3762 108.644 34.917 107.715 34.6503 106.724C34.3836 105.733 34.3147 104.7 34.4476 103.682C34.5804 102.665 34.9124 101.683 35.4246 100.794C42.7746 88.025 50.5246 77.7313 62.0246 67.5875C63.5779 66.217 65.612 65.5196 67.6794 65.6485C69.7469 65.7774 71.6785 66.7222 73.0496 68.275ZM226.475 178.494C226.127 176.473 224.999 174.671 223.334 173.474C221.669 172.278 219.601 171.784 217.575 172.099C215.549 172.414 213.729 173.513 212.506 175.158C211.282 176.803 210.755 178.863 211.037 180.894C214.225 201.375 224.818 214.312 237.631 223.537C238.464 224.137 239.407 224.566 240.406 224.801C241.405 225.035 242.44 225.071 243.453 224.906C244.466 224.74 245.436 224.377 246.308 223.837C247.181 223.296 247.938 222.589 248.537 221.756C249.136 220.923 249.565 219.98 249.8 218.981C250.035 217.982 250.071 216.947 249.905 215.934C249.74 214.921 249.377 213.951 248.836 213.079C248.296 212.207 247.589 211.449 246.756 210.85C236.6 203.537 228.893 194.012 226.475 178.494ZM150.987 178.15C152.011 178.073 153.039 178.199 154.014 178.52C154.989 178.841 155.891 179.351 156.669 180.021C157.447 180.691 158.085 181.507 158.547 182.424C159.009 183.34 159.286 184.339 159.362 185.363C161.268 210.831 170.593 232.406 185.575 249.55C186.272 250.319 186.809 251.219 187.154 252.198C187.499 253.176 187.646 254.214 187.586 255.25C187.526 256.286 187.26 257.3 186.803 258.232C186.347 259.164 185.709 259.996 184.928 260.679C184.146 261.362 183.237 261.883 182.252 262.21C181.267 262.538 180.227 262.666 179.192 262.587C178.157 262.508 177.148 262.224 176.225 261.751C175.301 261.277 174.481 260.625 173.812 259.831C156.55 240.081 145.937 215.287 143.781 186.525C143.704 185.502 143.83 184.474 144.15 183.499C144.471 182.525 144.98 181.623 145.649 180.845C146.319 180.067 147.134 179.429 148.05 178.967C148.966 178.504 149.964 178.227 150.987 178.15ZM126.475 86.9C127.421 86.5019 128.279 85.9214 129 85.1917C129.722 84.4619 130.293 83.5972 130.68 82.6468C131.068 81.6965 131.264 80.6791 131.258 79.6529C131.252 78.6266 131.045 77.6116 130.646 76.6656C130.248 75.7197 129.668 74.8614 128.938 74.1399C128.208 73.4183 127.344 72.8475 126.393 72.4601C125.443 72.0727 124.426 71.8763 123.399 71.882C122.373 71.8878 121.358 72.0957 120.412 72.4938C64.3371 96.075 36.3808 148.831 43.8121 211.85C43.9319 212.869 44.2513 213.854 44.7519 214.75C45.2526 215.645 45.9247 216.434 46.73 217.069C47.5352 217.705 48.4578 218.176 49.4451 218.455C50.4324 218.735 51.465 218.817 52.484 218.697C53.5029 218.577 54.4883 218.258 55.3839 217.757C56.2794 217.256 57.0676 216.584 57.7034 215.779C58.3392 214.974 58.8101 214.051 59.0894 213.064C59.3686 212.077 59.4507 211.044 59.3308 210.025C52.6246 153.15 77.4996 107.494 126.475 86.8875V86.9Z" fill="url(#paint0_linear_929_21125)"/>
<defs>
<linearGradient id="paint0_linear_929_21125" x1="262.476" y1="268.557" x2="-10.3454" y2="192.136" gradientUnits="userSpaceOnUse">
<stop stop-color="#101010"/>
<stop offset="1" stop-color="#313130"/>
</linearGradient>
</defs>
</svg>
