<svg width="276" height="251" viewBox="0 0 276 251" fill="none" xmlns="http://www.w3.org/2000/svg">
<g clip-path="url(#clip0_929_19899)">
<path d="M190.727 249.704H112.413C100.667 249.704 91.1104 240.157 91.1104 228.423V21.6134C91.1104 9.8796 100.667 0.333313 112.413 0.333313H190.727C202.473 0.333313 212.029 9.8796 212.029 21.6134C213.487 104.662 215.973 197.663 212.029 228.423C212.029 240.157 202.473 249.704 190.727 249.704L190.727 249.704Z" fill="#3F3D56"/>
<path d="M213.121 76.4048C212.624 76.4048 212.22 76.8085 212.22 77.305V106.113C212.22 106.61 212.624 107.013 213.121 107.013C213.618 107.013 214.022 106.61 214.022 106.113V77.305C214.022 76.8085 213.618 76.4048 213.121 76.4048Z" fill="#3F3D56"/>
<path d="M210.002 21.6136V228.42C210.002 238.633 202.044 246.988 191.982 247.636H191.978C191.829 247.645 191.681 247.654 191.527 247.658C191.261 247.672 190.996 247.676 190.725 247.676C190.725 247.676 189.734 247.604 187.923 247.469C186.093 247.334 183.43 247.132 180.109 246.866C179.113 246.789 178.063 246.704 176.955 246.614C174.747 246.434 172.323 246.236 169.723 246.011C168.687 245.925 167.614 245.831 166.519 245.736C160.923 245.255 154.655 244.692 148.045 244.053C146.927 243.949 145.801 243.841 144.665 243.729C144.368 243.697 93.1387 230.832 93.1387 228.42V21.6136C93.1387 10.9771 101.768 2.35718 112.415 2.35718H123.923C125.762 2.35718 127.24 3.78858 127.398 5.6206C127.411 5.74214 127.425 5.86366 127.447 5.9852C127.781 7.82623 129.47 9.10908 131.345 9.10908H171.796C173.67 9.10908 175.36 7.82623 175.693 5.9852C175.716 5.86366 175.729 5.74214 175.743 5.6206C175.901 3.78858 177.379 2.35718 179.217 2.35718H190.725C201.373 2.35718 210.002 10.9771 210.002 21.6136H210.002Z" fill="white"/>
<path d="M90.66 54.7987C90.163 54.7987 89.7588 55.2025 89.7588 55.699V62.901C89.7588 63.3975 90.163 63.8012 90.66 63.8012C91.157 63.8012 91.5612 63.3975 91.5612 62.901V55.699C91.5612 55.2025 91.157 54.7987 90.66 54.7987Z" fill="#3F3D56"/>
<path d="M90.66 76.4048C90.163 76.4048 89.7588 76.8085 89.7588 77.305V91.259C89.7588 91.7555 90.163 92.1592 90.66 92.1592C91.157 92.1592 91.5612 91.7555 91.5612 91.259V77.305C91.5612 76.8085 91.157 76.4048 90.66 76.4048V76.4048Z" fill="#3F3D56"/>
<path d="M90.66 96.2103C90.163 96.2103 89.7588 96.6141 89.7588 97.1106V111.065C89.7588 111.561 90.163 111.965 90.66 111.965C91.157 111.965 91.5612 111.561 91.5612 111.065V97.1106C91.5612 96.6141 91.157 96.2103 90.66 96.2103Z" fill="#3F3D56"/>
<path d="M123.628 5.50983H106.358C106.274 5.50983 106.206 5.5776 106.206 5.66121V7.60908C106.206 7.69268 106.274 7.76046 106.358 7.76046H123.628C123.711 7.76046 123.779 7.69268 123.779 7.60908V5.66121C123.779 5.5776 123.711 5.50983 123.628 5.50983Z" fill="#E6E6E6"/>
<path d="M182.064 7.7605C183.06 7.7605 183.866 6.95438 183.866 5.95999C183.866 4.9656 183.06 4.15948 182.064 4.15948C181.069 4.15948 180.262 4.9656 180.262 5.95999C180.262 6.95438 181.069 7.7605 182.064 7.7605Z" fill="#E6E6E6"/>
<path d="M187.021 7.7605C188.017 7.7605 188.824 6.95438 188.824 5.95999C188.824 4.9656 188.017 4.15948 187.021 4.15948C186.026 4.15948 185.219 4.9656 185.219 5.95999C185.219 6.95438 186.026 7.7605 187.021 7.7605Z" fill="#E6E6E6"/>
<path d="M191.977 7.7605C192.973 7.7605 193.78 6.95438 193.78 5.95999C193.78 4.9656 192.973 4.15948 191.977 4.15948C190.982 4.15948 190.175 4.9656 190.175 5.95999C190.175 6.95438 190.982 7.7605 191.977 7.7605Z" fill="#E6E6E6"/>
<path d="M6.99219 249.753C6.99219 250.075 7.25111 250.333 7.57354 250.333H275.418C275.741 250.333 276 250.075 276 249.753C276 249.431 275.741 249.172 275.418 249.172H7.57354C7.25111 249.172 6.99219 249.431 6.99219 249.753Z" fill="#CCCCCC"/>
<path d="M92.3937 245.938L86.901 245.938L84.2881 224.774L92.3948 224.774L92.3937 245.938Z" fill="#FFB6B6"/>
<path d="M73.5747 245.814C73.4037 246.102 73.3135 247.03 73.3135 247.365C73.3135 248.394 74.1481 249.227 75.1777 249.227H92.1879C92.8902 249.227 93.4597 248.659 93.4597 247.957V247.249C93.4597 247.249 94.3011 245.123 92.5687 242.502C92.5687 242.502 90.4155 244.555 87.198 241.34L86.2492 239.623L79.3813 244.641L75.5745 245.109C74.7416 245.212 74.0032 245.093 73.5748 245.814H73.5747V245.814H73.5747Z" fill="#2F2E41"/>
<path d="M62.0178 216.542L56.5251 216.524L53.9795 195.352L62.0861 195.378L62.0178 216.542Z" fill="#FFB6B6"/>
<path d="M43.1998 216.358C43.0279 216.645 42.9347 217.574 42.9336 217.908C42.9303 218.937 43.7623 219.773 44.7919 219.777L61.802 219.83C62.5043 219.833 63.0756 219.266 63.0778 218.564L63.0801 217.857C63.0801 217.857 63.9283 215.733 62.2042 213.107C62.2042 213.107 60.0445 215.152 56.8372 211.928L55.8939 210.208L49.01 215.204L45.2017 215.66C44.3686 215.759 43.6306 215.639 43.1999 216.358H43.1998V216.358Z" fill="#2F2E41"/>
<path d="M84.3825 117.453L77.5433 117.941C77.5433 117.941 54.3902 131.091 52.4362 134.019C50.4821 136.947 47.7953 141.095 50.2379 145.487C52.6804 149.879 50.8214 203.058 50.8214 203.058L62.4933 200.42L69.9715 144.781L85.6038 142.585C85.6038 142.585 90.9774 154.166 89.0233 163.748C87.0693 173.329 86.0923 179.185 86.0923 179.185L83.6497 235.793L93.1756 235.549L101.725 183.089L116.38 141.609L97.328 119.161L84.3825 117.453Z" fill="#2F2E41"/>
<path d="M52.8471 112.746C50.0658 114.262 48.5943 116.925 49.5602 118.693C50.5261 120.461 53.5638 120.665 56.3451 119.148C57.5626 118.485 58.529 117.601 59.15 116.669L70.8543 110.097L67.6496 104.676L56.4516 111.73C55.3311 111.748 54.0646 112.082 52.8471 112.746H52.8471Z" fill="#FFB6B6"/>
<path d="M118.09 57.4292L103.923 58.8932L102.457 63.7732L88.779 71.0932L93.1756 101.837L89.756 107.205L91.2215 112.573C91.2215 112.573 87.3134 113.061 87.802 115.989L79.0088 117.453C79.0088 117.453 90.6715 119.832 93.1448 131.574C95.6181 143.317 116.135 144.781 116.135 144.781L132.256 94.5171L133.722 64.7492L122.486 61.8212L118.09 57.4292Z" fill="#E6E6E6"/>
<path d="M92.3178 71.3209C92.3178 71.3209 87.7297 69.5758 86.1489 71.6764C84.5681 73.777 74.1253 99.2654 74.1253 99.2654L58.8037 107.259L63.1123 114.754L82.8418 108.192L95.859 84.4103L92.3178 71.3209Z" fill="#E6E6E6"/>
<path d="M237 155.028V206.756C237 211.33 233.275 215.052 228.695 215.052H100.706C96.1267 215.052 92.4014 211.33 92.4014 206.756V155.028C92.4014 150.453 96.1267 146.732 100.706 146.732H228.695C233.275 146.732 237 150.453 237 155.028Z" fill="white"/>
<path d="M237 155.028V206.756C237 211.33 233.275 215.052 228.695 215.052H100.706C96.1267 215.052 92.4014 211.33 92.4014 206.756V155.028C92.4014 150.453 96.1267 146.732 100.706 146.732H228.695C233.275 146.732 237 150.453 237 155.028ZM228.695 214.076C232.742 214.076 236.023 210.799 236.023 206.756V180.677C236.023 162.469 221.247 147.708 203.02 147.708H100.706C96.6591 147.708 93.3784 150.985 93.3784 155.028V206.756C93.3784 210.799 96.6591 214.076 100.706 214.076H228.695Z" fill="#3F3D56"/>
<path d="M149.855 177.984H133.138C132.717 177.984 132.374 178.327 132.374 178.748C132.374 179.169 132.717 179.511 133.138 179.511H149.855C150.277 179.511 150.62 179.169 150.62 178.748C150.62 178.327 150.277 177.984 149.855 177.984Z" fill="#101010"/>
<path d="M175.258 177.984H158.541C158.119 177.984 157.776 178.327 157.776 178.748C157.776 179.169 158.119 179.511 158.541 179.511H175.258C175.679 179.511 176.022 179.169 176.022 178.748C176.022 178.327 175.679 177.984 175.258 177.984Z" fill="#101010"/>
<path d="M149.855 186.332H133.138C132.717 186.332 132.374 186.674 132.374 187.095C132.374 187.516 132.717 187.859 133.138 187.859H149.855C150.277 187.859 150.62 187.516 150.62 187.095C150.62 186.674 150.277 186.332 149.855 186.332Z" fill="#101010"/>
<path d="M175.258 186.332H158.541C158.119 186.332 157.776 186.674 157.776 187.095C157.776 187.516 158.119 187.859 158.541 187.859H175.258C175.679 187.859 176.022 187.516 176.022 187.095C176.022 186.674 175.679 186.332 175.258 186.332Z" fill="#101010"/>
<path d="M201.424 187.095C201.424 186.674 201.082 186.332 200.66 186.332H183.943C183.522 186.332 183.179 186.674 183.179 187.095C183.179 187.516 183.522 187.859 183.943 187.859H200.66C201.082 187.859 201.424 187.516 201.424 187.095Z" fill="#101010"/>
<path d="M140.085 171.319C140.506 171.319 140.849 170.976 140.849 170.555C140.849 170.134 140.506 169.792 140.085 169.792H123.368C122.946 169.792 122.604 170.134 122.604 170.555C122.604 170.976 122.946 171.319 123.368 171.319H140.085Z" fill="#101010"/>
<path d="M189.316 171.008H206.033C206.455 171.008 206.797 170.666 206.797 170.245C206.797 169.824 206.455 169.481 206.033 169.481H189.316C188.895 169.481 188.552 169.824 188.552 170.245C188.552 170.666 188.895 171.008 189.316 171.008Z" fill="#101010"/>
<path d="M147.128 171.169H181.786C182.207 171.169 182.55 170.826 182.55 170.405C182.55 169.984 182.207 169.642 181.786 169.642H147.128C146.706 169.642 146.363 169.984 146.363 170.405C146.363 170.826 146.706 171.169 147.128 171.169Z" fill="#101010"/>
<path d="M160.764 193.916H144.047C143.625 193.916 143.282 194.259 143.282 194.68C143.282 195.101 143.625 195.443 144.047 195.443H160.764C161.185 195.443 161.528 195.101 161.528 194.68C161.528 194.259 161.185 193.916 160.764 193.916Z" fill="#101010"/>
<path d="M214.755 154.638V206.366C214.755 210.94 211.029 214.662 206.45 214.662H154.668C150.089 214.662 146.363 210.94 146.363 206.366V154.638C146.363 150.063 150.089 146.342 154.668 146.342H206.45C211.029 146.342 214.755 150.063 214.755 154.638Z" fill="white"/>
<path d="M214.755 154.638V206.366C214.755 210.94 211.029 214.662 206.45 214.662H154.668C150.089 214.662 146.363 210.94 146.363 206.366V154.638C146.363 150.063 150.089 146.342 154.668 146.342H206.45C211.029 146.342 214.755 150.063 214.755 154.638ZM203.238 213.686C209.059 213.686 213.778 208.972 213.778 203.157V180.287C213.778 162.079 199.002 147.318 180.774 147.318H154.668C150.621 147.318 147.34 150.595 147.34 154.638V199.149C147.34 207.177 153.856 213.686 161.893 213.686H203.238V213.686H203.238Z" fill="#3F3D56"/>
<path d="M187.452 167.469H170.735C170.314 167.469 169.971 167.126 169.971 166.705C169.971 166.284 170.314 165.942 170.735 165.942H187.452C187.874 165.942 188.216 166.284 188.216 166.705C188.216 167.126 187.874 167.469 187.452 167.469V167.469Z" fill="#101010"/>
<path d="M187.452 183.75H170.735C170.314 183.75 169.971 183.407 169.971 182.986C169.971 182.565 170.314 182.223 170.735 182.223H187.452C187.874 182.223 188.216 182.565 188.216 182.986C188.216 183.407 187.874 183.75 187.452 183.75V183.75Z" fill="#101010"/>
<path d="M179.147 206.198H162.43C162.009 206.198 161.666 205.855 161.666 205.434C161.666 205.013 162.009 204.671 162.43 204.671H179.147C179.569 204.671 179.912 205.013 179.912 205.434C179.912 205.855 179.569 206.198 179.147 206.198V206.198Z" fill="#101010"/>
<path d="M196.423 175.615H161.764C161.343 175.615 161 175.272 161 174.851C161 174.43 161.343 174.088 161.764 174.088H196.423C196.844 174.088 197.187 174.43 197.187 174.851C197.187 175.272 196.844 175.615 196.423 175.615V175.615Z" fill="#101010"/>
<path d="M205.012 125.974C205.012 109.838 191.359 100.961 175.763 96.7561C155.768 91.3657 141.124 102.273 146.514 125.974C147.736 131.346 150.658 137.62 154.275 142.986H182.977C192.564 136.751 205.012 138.499 205.012 125.974H205.012Z" fill="#101010"/>
<path d="M175.333 156.479C176.966 153.37 179.036 151.127 181.316 149.419H154.434C161.353 159.292 170.528 165.629 175.333 156.479Z" fill="#101010"/>
<path d="M172.231 108.699C173.957 108.699 175.356 110.097 175.356 111.821V118.064H169.106V111.821C169.106 110.097 170.505 108.699 172.231 108.699ZM176.919 118.064V111.821C176.919 109.235 174.82 107.139 172.231 107.139C169.642 107.139 167.544 109.235 167.544 111.821V118.064C165.818 118.064 164.419 119.462 164.419 121.186V128.99C164.419 130.714 165.818 132.112 167.544 132.112H176.919C178.644 132.112 180.043 130.714 180.043 128.99V121.186C180.043 119.462 178.644 118.064 176.919 118.064H176.919ZM167.544 119.625H176.919C177.781 119.625 178.481 120.324 178.481 121.186V128.99C178.481 129.852 177.781 130.551 176.919 130.551H167.544C166.681 130.551 165.981 129.852 165.981 128.99V121.186C165.981 120.324 166.681 119.625 167.544 119.625Z" fill="white"/>
<path d="M127.574 145.046C127.197 148.189 128.515 150.931 130.517 151.17C132.519 151.41 134.447 149.056 134.824 145.913C134.989 144.538 134.829 143.239 134.429 142.193L135.859 128.856L129.579 128.32L128.837 141.524C128.201 142.446 127.739 143.67 127.574 145.046Z" fill="#FFB6B6"/>
<path d="M28.5778 159.099C44.3608 159.099 57.1556 146.317 57.1556 130.551C57.1556 114.784 44.3608 102.003 28.5778 102.003C12.7947 102.003 0 114.784 0 130.551C0 146.317 12.7947 159.099 28.5778 159.099Z" fill="#101010"/>
<path d="M28.5777 117.771C30.5965 117.771 32.233 119.405 32.233 121.422V128.725H24.9224V121.422C24.9224 119.405 26.5589 117.771 28.5777 117.771ZM34.0607 128.725V121.422C34.0607 118.397 31.6059 115.945 28.5777 115.945C25.5496 115.945 23.0948 118.397 23.0948 121.422V128.725C21.076 128.725 19.4395 130.36 19.4395 132.376V141.505C19.4395 143.522 21.076 145.157 23.0948 145.157H34.0606C36.0794 145.157 37.7159 143.522 37.7159 141.505V132.376C37.7159 130.36 36.0794 128.725 34.0606 128.725H34.0607ZM23.0948 130.551H34.0606C35.07 130.551 35.8883 131.368 35.8883 132.376V141.505C35.8883 142.514 35.07 143.331 34.0606 143.331H23.0948C22.0854 143.331 21.2671 142.514 21.2671 141.505V132.376C21.2671 131.368 22.0854 130.551 23.0948 130.551Z" fill="white"/>
<path d="M129.081 65.4811C129.081 65.4811 135.92 63.5291 137.386 66.4571C138.851 69.3851 142.271 107.937 142.271 107.937L135.676 138.71L128.104 136.729L132.012 105.497L126.639 82.0731L129.081 65.4811Z" fill="#E6E6E6"/>
<path d="M110.623 55.5774C116.706 55.5774 121.636 50.6519 121.636 44.576C121.636 38.5 116.706 33.5745 110.623 33.5745C104.541 33.5745 99.6104 38.5 99.6104 44.576C99.6104 50.6519 104.541 55.5774 110.623 55.5774Z" fill="#FFB6B6"/>
<path d="M104.9 54.5012C104.9 54.5012 95.1299 54.0132 96.107 46.2052C93.6887 37.8906 95.8292 32.492 103.435 30.5893C103.435 30.5893 105.389 30.1013 105.877 30.1013C112.302 30.1013 115.647 32.0533 115.647 32.0533C115.647 32.0533 115.159 30.1205 115.647 30.5989C116.136 31.0773 116.624 32.0533 116.624 32.0533C116.624 32.0533 121.509 34.4932 121.509 39.3732C121.509 44.2532 121.509 42.3012 121.509 42.3012C121.509 42.3012 120.532 42.3012 119.555 39.3732C118.578 36.4452 112.253 38.3972 112.253 38.3972L112.716 39.3732L111.251 38.8852L109.785 40.3492L108.808 39.8612C108.808 39.8612 104.9 39.8612 105.389 39.8612C105.877 39.8612 105.537 43.1776 105.537 43.1776L101.969 47.1812L105.877 54.5012H104.9Z" fill="#2F2E41"/>
</g>
<defs>
<clipPath id="clip0_929_19899">
<rect width="276" height="250" fill="white" transform="translate(0 0.333313)"/>
</clipPath>
</defs>
</svg>
