<svg width="276" height="251" viewBox="0 0 276 251" fill="none" xmlns="http://www.w3.org/2000/svg">
<g clip-path="url(#clip0_1344_69019)">
<path d="M190.672 249.704H112.44C100.706 249.704 91.1602 240.157 91.1602 228.423V21.6134C91.1602 9.8796 100.706 0.333313 112.44 0.333313H190.672C202.406 0.333313 211.952 9.8796 211.952 21.6134C213.409 104.662 215.892 197.663 211.952 228.423C211.952 240.157 202.406 249.704 190.672 249.704L190.672 249.704Z" fill="#3F3D56"/>
<path d="M213.045 76.4048C212.548 76.4048 212.145 76.8085 212.145 77.305V106.113C212.145 106.61 212.548 107.013 213.045 107.013C213.541 107.013 213.945 106.61 213.945 106.113V77.305C213.945 76.8085 213.541 76.4048 213.045 76.4048Z" fill="#3F3D56"/>
<path d="M209.929 21.6136V228.42C209.929 238.633 201.979 246.988 191.928 247.636H191.924C191.775 247.645 191.626 247.654 191.473 247.658C191.208 247.672 190.942 247.676 190.672 247.676C190.672 247.676 189.682 247.604 187.872 247.469C186.045 247.334 183.385 247.132 180.067 246.866C179.072 246.789 178.024 246.704 176.916 246.614C174.711 246.434 172.289 246.236 169.692 246.011C168.656 245.925 167.585 245.831 166.491 245.736C160.901 245.255 154.64 244.692 148.036 244.053C146.92 243.949 145.795 243.841 144.66 243.729C144.363 243.697 93.1875 230.832 93.1875 228.42V21.6136C93.1875 10.9771 101.807 2.35718 112.444 2.35718H123.94C125.777 2.35718 127.253 3.78858 127.411 5.6206C127.424 5.74214 127.438 5.86366 127.46 5.9852C127.793 7.82623 129.481 9.10908 131.354 9.10908H171.762C173.635 9.10908 175.323 7.82623 175.656 5.9852C175.678 5.86366 175.692 5.74214 175.705 5.6206C175.863 3.78858 177.339 2.35718 179.176 2.35718H190.672C201.309 2.35718 209.929 10.9771 209.929 21.6136H209.929Z" fill="#1F222A"/>
<path d="M90.7108 54.7987C90.2143 54.7987 89.8105 55.2025 89.8105 55.699V62.901C89.8105 63.3975 90.2143 63.8012 90.7108 63.8012C91.2073 63.8012 91.6111 63.3975 91.6111 62.901V55.699C91.6111 55.2025 91.2073 54.7987 90.7108 54.7987Z" fill="#3F3D56"/>
<path d="M90.7108 76.4048C90.2143 76.4048 89.8105 76.8085 89.8105 77.305V91.259C89.8105 91.7555 90.2143 92.1592 90.7108 92.1592C91.2073 92.1592 91.6111 91.7555 91.6111 91.259V77.305C91.6111 76.8085 91.2073 76.4048 90.7108 76.4048V76.4048Z" fill="#3F3D56"/>
<path d="M90.7108 96.2103C90.2143 96.2103 89.8105 96.6141 89.8105 97.1106V111.065C89.8105 111.561 90.2143 111.965 90.7108 111.965C91.2073 111.965 91.6111 111.561 91.6111 111.065V97.1106C91.6111 96.6141 91.2073 96.2103 90.7108 96.2103Z" fill="#3F3D56"/>
<path d="M123.644 5.50983H106.392C106.308 5.50983 106.24 5.5776 106.24 5.66121V7.60908C106.24 7.69268 106.308 7.76046 106.392 7.76046H123.644C123.727 7.76046 123.795 7.69268 123.795 7.60908V5.66121C123.795 5.5776 123.727 5.50983 123.644 5.50983Z" fill="#35383F"/>
<path d="M182.019 7.7605C183.014 7.7605 183.82 6.95438 183.82 5.95999C183.82 4.9656 183.014 4.15948 182.019 4.15948C181.025 4.15948 180.219 4.9656 180.219 5.95999C180.219 6.95438 181.025 7.7605 182.019 7.7605Z" fill="#35383F"/>
<path d="M186.97 7.7605C187.965 7.7605 188.771 6.95438 188.771 5.95999C188.771 4.9656 187.965 4.15948 186.97 4.15948C185.976 4.15948 185.17 4.9656 185.17 5.95999C185.17 6.95438 185.976 7.7605 186.97 7.7605Z" fill="#35383F"/>
<path d="M191.922 7.7605C192.916 7.7605 193.722 6.95438 193.722 5.95999C193.722 4.9656 192.916 4.15948 191.922 4.15948C190.927 4.15948 190.121 4.9656 190.121 5.95999C190.121 6.95438 190.927 7.7605 191.922 7.7605Z" fill="#35383F"/>
<path d="M7.13086 249.753C7.13086 250.075 7.38951 250.333 7.71161 250.333H275.277C275.599 250.333 275.857 250.075 275.857 249.753C275.857 249.431 275.599 249.172 275.277 249.172H7.71161C7.38951 249.172 7.13086 249.431 7.13086 249.753Z" fill="#424242"/>
<path d="M92.4409 245.938L86.9539 245.938L84.3438 224.774L92.442 224.774L92.4409 245.938Z" fill="#FFB6B6"/>
<path d="M73.6419 245.814C73.471 246.102 73.3809 247.03 73.3809 247.365C73.3809 248.394 74.2146 249.227 75.2431 249.227H92.2355C92.9372 249.227 93.506 248.659 93.506 247.957V247.249C93.506 247.249 94.3466 245.123 92.616 242.502C92.616 242.502 90.465 244.555 87.2509 241.34L86.3031 239.623L79.4423 244.641L75.6395 245.109C74.8075 245.212 74.0699 245.093 73.6419 245.814H73.6418V245.814H73.6419Z" fill="#2F2E41"/>
<path d="M62.0982 216.542L56.6113 216.524L54.0684 195.352L62.1665 195.378L62.0982 216.542Z" fill="#FFB6B6"/>
<path d="M43.2991 216.358C43.1274 216.645 43.0343 217.574 43.0332 217.908C43.0299 218.937 43.861 219.773 44.8896 219.777L61.8819 219.83C62.5835 219.833 63.1541 219.266 63.1564 218.564L63.1586 217.857C63.1586 217.857 64.006 215.733 62.2837 213.107C62.2837 213.107 60.1262 215.152 56.9223 211.928L55.98 210.208L49.1033 215.204L45.299 215.66C44.4667 215.759 43.7294 215.639 43.2992 216.358H43.2991V216.358Z" fill="#2F2E41"/>
<path d="M84.4396 117.453L77.6076 117.941C77.6076 117.941 54.4786 131.091 52.5266 134.019C50.5746 136.947 47.8906 141.095 50.3306 145.487C52.7706 149.879 50.9135 203.058 50.9135 203.058L62.5732 200.42L70.0436 144.781L85.6595 142.585C85.6595 142.585 91.0275 154.166 89.0755 163.748C87.1235 173.329 86.1475 179.185 86.1475 179.185L83.7076 235.793L93.2235 235.549L101.764 183.089L116.403 141.609L97.3715 119.161L84.4396 117.453Z" fill="#2F2E41"/>
<path d="M52.9371 112.746C50.1587 114.262 48.6887 116.925 49.6536 118.693C50.6186 120.461 53.6531 120.665 56.4315 119.148C57.6477 118.485 58.6131 117.601 59.2334 116.669L70.9255 110.097L67.7241 104.676L56.5378 111.73C55.4185 111.748 54.1533 112.082 52.9371 112.746H52.9371Z" fill="#FFB6B6"/>
<path d="M118.11 57.4292L103.958 58.8932L102.494 63.7732L88.8303 71.0932L93.2223 101.837L89.8063 107.205L91.2703 112.573C91.2703 112.573 87.3663 113.061 87.8543 115.989L79.0703 117.453C79.0703 117.453 90.7208 119.832 93.1915 131.574C95.6623 143.317 116.158 144.781 116.158 144.781L132.262 94.5171L133.726 64.7492L122.502 61.8212L118.11 57.4292Z" fill="#35383F"/>
<path d="M92.3658 71.3209C92.3658 71.3209 87.7825 69.5758 86.2033 71.6764C84.6242 73.777 74.1923 99.2654 74.1923 99.2654L58.8867 107.259L63.1908 114.754L82.8997 108.192L95.9033 84.4103L92.3658 71.3209Z" fill="#35383F"/>
<path d="M236.897 155.028V206.756C236.897 211.33 233.175 215.052 228.601 215.052H100.745C96.1707 215.052 92.4492 211.33 92.4492 206.756V155.028C92.4492 150.453 96.1707 146.732 100.745 146.732H228.601C233.175 146.732 236.897 150.453 236.897 155.028Z" fill="#1F222A"/>
<path d="M236.897 155.028V206.756C236.897 211.33 233.175 215.052 228.601 215.052H100.745C96.1707 215.052 92.4492 211.33 92.4492 206.756V155.028C92.4492 150.453 96.1707 146.732 100.745 146.732H228.601C233.175 146.732 236.897 150.453 236.897 155.028ZM228.601 214.076C232.644 214.076 235.921 210.799 235.921 206.756V180.677C235.921 162.469 221.16 147.708 202.952 147.708H100.745C96.7025 147.708 93.4252 150.985 93.4252 155.028V206.756C93.4252 210.799 96.7025 214.076 100.745 214.076H228.601Z" fill="#3F3D56"/>
<path d="M149.842 177.984H133.142C132.721 177.984 132.379 178.327 132.379 178.748C132.379 179.169 132.721 179.511 133.142 179.511H149.842C150.263 179.511 150.606 179.169 150.606 178.748C150.606 178.327 150.263 177.984 149.842 177.984Z" fill="#35383F"/>
<path d="M175.217 177.984H158.517C158.096 177.984 157.754 178.327 157.754 178.748C157.754 179.169 158.096 179.511 158.517 179.511H175.217C175.638 179.511 175.981 179.169 175.981 178.748C175.981 178.327 175.638 177.984 175.217 177.984Z" fill="#35383F"/>
<path d="M149.842 186.332H133.142C132.721 186.332 132.379 186.674 132.379 187.095C132.379 187.516 132.721 187.859 133.142 187.859H149.842C150.263 187.859 150.606 187.516 150.606 187.095C150.606 186.674 150.263 186.332 149.842 186.332Z" fill="#35383F"/>
<path d="M175.217 186.332H158.517C158.096 186.332 157.754 186.674 157.754 187.095C157.754 187.516 158.096 187.859 158.517 187.859H175.217C175.638 187.859 175.981 187.516 175.981 187.095C175.981 186.674 175.638 186.332 175.217 186.332Z" fill="#35383F"/>
<path d="M201.357 187.095C201.357 186.674 201.015 186.332 200.594 186.332H183.894C183.473 186.332 183.131 186.674 183.131 187.095C183.131 187.516 183.473 187.859 183.894 187.859H200.594C201.015 187.859 201.357 187.516 201.357 187.095Z" fill="#35383F"/>
<path d="M140.082 171.319C140.503 171.319 140.846 170.976 140.846 170.555C140.846 170.134 140.503 169.792 140.082 169.792H123.383C122.962 169.792 122.619 170.134 122.619 170.555C122.619 170.976 122.962 171.319 123.383 171.319H140.082Z" fill="#35383F"/>
<path d="M189.262 171.008H205.961C206.382 171.008 206.725 170.666 206.725 170.245C206.725 169.824 206.382 169.481 205.961 169.481H189.262C188.841 169.481 188.498 169.824 188.498 170.245C188.498 170.666 188.841 171.008 189.262 171.008Z" fill="#35383F"/>
<path d="M147.117 171.169H181.739C182.16 171.169 182.503 170.826 182.503 170.405C182.503 169.984 182.16 169.642 181.739 169.642H147.117C146.696 169.642 146.354 169.984 146.354 170.405C146.354 170.826 146.696 171.169 147.117 171.169Z" fill="#35383F"/>
<path d="M160.741 193.916H144.041C143.62 193.916 143.277 194.259 143.277 194.68C143.277 195.101 143.62 195.443 144.041 195.443H160.741C161.162 195.443 161.504 195.101 161.504 194.68C161.504 194.259 161.162 193.916 160.741 193.916Z" fill="#35383F"/>
<path d="M214.675 154.638V206.366C214.675 210.94 210.954 214.662 206.379 214.662H154.651C150.077 214.662 146.355 210.94 146.355 206.366V154.638C146.355 150.063 150.077 146.342 154.651 146.342H206.379C210.954 146.342 214.675 150.063 214.675 154.638Z" fill="#1F222A"/>
<path d="M214.675 154.638V206.366C214.675 210.94 210.954 214.662 206.379 214.662H154.651C150.077 214.662 146.355 210.94 146.355 206.366V154.638C146.355 150.063 150.077 146.342 154.651 146.342H206.379C210.954 146.342 214.675 150.063 214.675 154.638ZM203.17 213.686C208.985 213.686 213.699 208.972 213.699 203.157V180.287C213.699 162.079 198.939 147.318 180.731 147.318H154.651C150.609 147.318 147.331 150.595 147.331 154.638V199.149C147.331 207.177 153.84 213.686 161.869 213.686H203.17V213.686H203.17Z" fill="#3F3D56"/>
<path d="M187.401 167.469H170.701C170.28 167.469 169.938 167.126 169.938 166.705C169.938 166.284 170.28 165.942 170.701 165.942H187.401C187.822 165.942 188.164 166.284 188.164 166.705C188.164 167.126 187.822 167.469 187.401 167.469V167.469Z" fill="#35383F"/>
<path d="M187.401 183.75H170.701C170.28 183.75 169.938 183.407 169.938 182.986C169.938 182.565 170.28 182.223 170.701 182.223H187.401C187.822 182.223 188.164 182.565 188.164 182.986C188.164 183.407 187.822 183.75 187.401 183.75V183.75Z" fill="#35383F"/>
<path d="M179.106 206.198H162.406C161.985 206.198 161.643 205.855 161.643 205.434C161.643 205.013 161.985 204.671 162.406 204.671H179.106C179.527 204.671 179.869 205.013 179.869 205.434C179.869 205.855 179.527 206.198 179.106 206.198V206.198Z" fill="#35383F"/>
<path d="M196.362 175.615H161.74C161.319 175.615 160.977 175.272 160.977 174.851C160.977 174.43 161.319 174.088 161.74 174.088H196.362C196.783 174.088 197.126 174.43 197.126 174.851C197.126 175.272 196.783 175.615 196.362 175.615V175.615Z" fill="#35383F"/>
<path d="M204.941 125.974C204.941 109.838 191.302 100.961 175.722 96.7561C155.748 91.3657 141.119 102.273 146.504 125.974C147.725 131.346 150.644 137.62 154.257 142.986H182.929C192.506 136.751 204.94 138.499 204.94 125.974H204.941Z" fill="#35383F"/>
<path d="M175.294 156.479C176.925 153.37 178.992 151.127 181.271 149.419H154.416C161.328 159.292 170.494 165.629 175.294 156.479Z" fill="#35383F"/>
<path d="M172.195 108.699C173.919 108.699 175.316 110.097 175.316 111.821V118.064H169.073V111.821C169.073 110.097 170.471 108.699 172.195 108.699ZM176.877 118.064V111.821C176.877 109.235 174.781 107.139 172.195 107.139C169.609 107.139 167.512 109.235 167.512 111.821V118.064C165.788 118.064 164.391 119.462 164.391 121.186V128.99C164.391 130.714 165.788 132.112 167.512 132.112H176.877C178.601 132.112 179.999 130.714 179.999 128.99V121.186C179.999 119.462 178.601 118.064 176.877 118.064H176.877ZM167.512 119.625H176.877C177.739 119.625 178.438 120.324 178.438 121.186V128.99C178.438 129.852 177.739 130.551 176.877 130.551H167.512C166.65 130.551 165.951 129.852 165.951 128.99V121.186C165.951 120.324 166.65 119.625 167.512 119.625Z" fill="#1F222A"/>
<path d="M127.586 145.046C127.209 148.189 128.525 150.931 130.525 151.17C132.525 151.41 134.452 149.056 134.828 145.913C134.993 144.538 134.833 143.239 134.434 142.193L135.862 128.856L129.589 128.32L128.847 141.524C128.212 142.446 127.75 143.67 127.586 145.046Z" fill="#FFB6B6"/>
<path d="M28.6925 159.099C44.4591 159.099 57.2404 146.317 57.2404 130.551C57.2404 114.784 44.4591 102.003 28.6925 102.003C12.9259 102.003 0.144531 114.784 0.144531 130.551C0.144531 146.317 12.9259 159.099 28.6925 159.099Z" fill="#35383F"/>
<path d="M28.6932 117.771C30.7098 117.771 32.3446 119.405 32.3446 121.422V128.725H25.0417V121.422C25.0417 119.405 26.6765 117.771 28.6932 117.771ZM34.1704 128.725V121.422C34.1704 118.397 31.7181 115.945 28.6932 115.945C25.6682 115.945 23.2159 118.397 23.2159 121.422V128.725C21.1993 128.725 19.5645 130.36 19.5645 132.376V141.505C19.5645 143.522 21.1993 145.157 23.2159 145.157H34.1704C36.187 145.157 37.8219 143.522 37.8219 141.505V132.376C37.8219 130.36 36.187 128.725 34.1704 128.725H34.1704ZM23.2159 130.551H34.1704C35.1787 130.551 35.9961 131.368 35.9961 132.376V141.505C35.9961 142.514 35.1787 143.331 34.1704 143.331H23.2159C22.2076 143.331 21.3902 142.514 21.3902 141.505V132.376C21.3902 131.368 22.2076 130.551 23.2159 130.551Z" fill="#1F222A"/>
<path d="M129.09 65.4811C129.09 65.4811 135.922 63.5291 137.386 66.4571C138.85 69.3851 142.266 107.937 142.266 107.937L135.678 138.71L128.114 136.729L132.018 105.497L126.65 82.0731L129.09 65.4811Z" fill="#35383F"/>
<path d="M110.652 55.5774C116.728 55.5774 121.653 50.6519 121.653 44.576C121.653 38.5 116.728 33.5745 110.652 33.5745C104.576 33.5745 99.6504 38.5 99.6504 44.576C99.6504 50.6519 104.576 55.5774 110.652 55.5774Z" fill="#FFB6B6"/>
<path d="M104.934 54.5012C104.934 54.5012 95.1739 54.0132 96.1499 46.2052C93.7342 37.8906 95.8724 32.492 103.47 30.5893C103.47 30.5893 105.422 30.1013 105.91 30.1013C112.329 30.1013 115.67 32.0533 115.67 32.0533C115.67 32.0533 115.182 30.1205 115.67 30.5989C116.158 31.0773 116.646 32.0533 116.646 32.0533C116.646 32.0533 121.526 34.4932 121.526 39.3732C121.526 44.2532 121.526 42.3012 121.526 42.3012C121.526 42.3012 120.55 42.3012 119.574 39.3732C118.598 36.4452 112.279 38.3972 112.279 38.3972L112.742 39.3732L111.278 38.8852L109.814 40.3492L108.838 39.8612C108.838 39.8612 104.934 39.8612 105.422 39.8612C105.91 39.8612 105.57 43.1776 105.57 43.1776L102.006 47.1812L105.91 54.5012H104.934Z" fill="#2F2E41"/>
</g>
<defs>
<clipPath id="clip0_1344_69019">
<rect width="275.712" height="250" fill="white" transform="translate(0.144531 0.333313)"/>
</clipPath>
</defs>
</svg>
