<svg width="24" height="24" viewBox="0 0 24 24" fill="none" xmlns="http://www.w3.org/2000/svg">
<g id="Iconly/Light-Outline/Image">
<g id="Image">
<g id="Group 3">
<mask id="mask0_430_8357" style="mask-type:luminance" maskUnits="userSpaceOnUse" x="2" y="2" width="20" height="20">
<path id="Clip 2" fill-rule="evenodd" clip-rule="evenodd" d="M2.00049 2.00024H21.9601V21.95H2.00049V2.00024Z" fill="white"/>
</mask>
<g mask="url(#mask0_430_8357)">
<path id="Fill 1" fill-rule="evenodd" clip-rule="evenodd" d="M7.65049 3.5C5.12949 3.5 3.50049 5.227 3.50049 7.899V16.051C3.50049 18.724 5.12949 20.45 7.65049 20.45H16.3005C18.8275 20.45 20.4605 18.724 20.4605 16.051V7.899C20.4605 5.227 18.8275 3.5 16.3005 3.5H7.65049ZM16.3005 21.95H7.65049C4.27049 21.95 2.00049 19.579 2.00049 16.051V7.899C2.00049 4.371 4.27049 2 7.65049 2H16.3005C19.6855 2 21.9605 4.371 21.9605 7.899V16.051C21.9605 19.579 19.6855 21.95 16.3005 21.95Z" fill="#212121"/>
</g>
</g>
<path id="Fill 4" fill-rule="evenodd" clip-rule="evenodd" d="M5.2815 17.1805C5.0955 17.1805 4.9105 17.1125 4.7655 16.9745C4.4645 16.6905 4.4525 16.2145 4.7375 15.9155L6.2655 14.3025C7.0745 13.4435 8.4395 13.4015 9.3025 14.2115L10.2605 15.1835C10.5275 15.4535 10.9615 15.4585 11.2295 15.1945C11.3305 15.0755 13.5085 12.4305 13.5085 12.4305C13.9225 11.9285 14.5065 11.6185 15.1555 11.5545C15.8055 11.4975 16.4365 11.6865 16.9395 12.0995C16.9825 12.1345 17.0215 12.1685 19.2175 14.4235C19.5065 14.7195 19.5015 15.1945 19.2045 15.4835C18.9085 15.7745 18.4325 15.7655 18.1435 15.4695C18.1435 15.4695 16.0945 13.3665 15.9485 13.2245C15.7935 13.0975 15.5445 13.0235 15.2995 13.0475C15.0505 13.0725 14.8265 13.1915 14.6675 13.3845C12.3435 16.2035 12.3155 16.2305 12.2775 16.2675C11.4195 17.1095 10.0345 17.0955 9.1915 16.2355C9.1915 16.2355 8.2615 15.2915 8.2455 15.2725C8.0145 15.0585 7.6025 15.0725 7.3555 15.3335L5.8255 16.9465C5.6775 17.1025 5.4795 17.1805 5.2815 17.1805Z" fill="#212121"/>
<path id="Fill 6" fill-rule="evenodd" clip-rule="evenodd" d="M8.55769 8.12891C8.00469 8.12891 7.55469 8.57891 7.55469 9.13291C7.55469 9.68691 8.00469 10.1379 8.55869 10.1379C9.11269 10.1379 9.56369 9.68691 9.56369 9.13291C9.56369 8.57991 9.11269 8.12991 8.55769 8.12891ZM8.55869 11.6379C7.17769 11.6379 6.05469 10.5139 6.05469 9.13291C6.05469 7.75191 7.17769 6.62891 8.55869 6.62891C9.94069 6.62991 11.0637 7.75391 11.0637 9.13291C11.0637 10.5139 9.93969 11.6379 8.55869 11.6379Z" fill="#212121"/>
</g>
</g>
</svg>
