<svg width="24" height="24" viewBox="0 0 24 24" fill="none" xmlns="http://www.w3.org/2000/svg">
<g id="Iconly/Light-Outline/Image 3">
<g id="Image 2">
<g id="Group 3">
<mask id="mask0_430_8502" style="mask-type:luminance" maskUnits="userSpaceOnUse" x="2" y="2" width="20" height="20">
<path id="Clip 2" fill-rule="evenodd" clip-rule="evenodd" d="M2.00049 2.00012H21.9535V21.954H2.00049V2.00012Z" fill="white"/>
</mask>
<g mask="url(#mask0_430_8502)">
<path id="Fill 1" fill-rule="evenodd" clip-rule="evenodd" d="M7.65149 3.5C5.13049 3.5 3.50049 5.229 3.50049 7.904V16.05C3.50049 18.726 5.13049 20.454 7.65149 20.454H16.2975C18.8225 20.454 20.4535 18.726 20.4535 16.05V7.904C20.4555 6.541 20.0395 5.403 19.2515 4.614C18.5235 3.885 17.5045 3.5 16.3025 3.5H7.65149ZM16.2975 21.954H7.65149C4.27149 21.954 2.00049 19.581 2.00049 16.05V7.904C2.00049 4.373 4.27149 2 7.65149 2H16.3025C17.9105 2 19.2975 2.537 20.3125 3.554C21.3735 4.616 21.9555 6.161 21.9535 7.905V16.05C21.9535 19.581 19.6805 21.954 16.2975 21.954Z" fill="#212121"/>
</g>
</g>
<path id="Fill 4" fill-rule="evenodd" clip-rule="evenodd" d="M8.85647 7.68958C8.25247 7.68958 7.76147 8.18058 7.76147 8.78558C7.76147 9.38958 8.25247 9.88058 8.85747 9.88058C9.46147 9.88058 9.95347 9.38958 9.95347 8.78658C9.95247 8.18158 9.46047 7.69058 8.85647 7.68958ZM8.85747 11.3806C7.42547 11.3806 6.26147 10.2166 6.26147 8.78558C6.26147 7.35358 7.42547 6.18958 8.85747 6.18958C10.2885 6.19058 11.4525 7.35458 11.4535 8.78458V8.78558C11.4535 10.2166 10.2895 11.3806 8.85747 11.3806Z" fill="#212121"/>
<path id="Fill 6" fill-rule="evenodd" clip-rule="evenodd" d="M3.74918 20.1113C3.62518 20.1113 3.49918 20.0803 3.38318 20.0153C3.02118 19.8123 2.89418 19.3553 3.09618 18.9943C3.15618 18.8863 4.59118 16.3493 6.17018 15.0493C7.42218 14.0193 8.77018 14.5853 9.85618 15.0423C10.4952 15.3113 11.0992 15.5653 11.6792 15.5653C12.2112 15.5653 12.8782 14.6253 13.4682 13.7963C14.2872 12.6403 15.2172 11.3323 16.5792 11.3323C18.7492 11.3323 20.6222 13.2683 21.6292 14.3083L21.7452 14.4283C22.0332 14.7253 22.0262 15.2003 21.7292 15.4893C21.4342 15.7783 20.9592 15.7713 20.6692 15.4733L20.5512 15.3513C19.6992 14.4703 18.1132 12.8323 16.5792 12.8323C15.9912 12.8323 15.3012 13.8053 14.6902 14.6643C13.8522 15.8443 12.9852 17.0653 11.6792 17.0653C10.7962 17.0653 9.98718 16.7253 9.27418 16.4243C8.14018 15.9463 7.62618 15.7933 7.12318 16.2073C5.75918 17.3313 4.41718 19.7053 4.40418 19.7283C4.26718 19.9733 4.01218 20.1113 3.74918 20.1113Z" fill="#212121"/>
</g>
</g>
</svg>
