<svg width="24" height="24" viewBox="0 0 24 24" fill="none" xmlns="http://www.w3.org/2000/svg">
<path fill-rule="evenodd" clip-rule="evenodd" d="M2 11.9993C2 6.4803 6.48 1.9993 12 1.9993C17.53 1.9993 22 6.4803 22 11.9993C22 17.5203 17.53 21.9993 12 21.9993C6.48 21.9993 2 17.5203 2 11.9993ZM11.12 8.2093C11.12 7.7303 11.52 7.3293 12 7.3293C12.48 7.3293 12.87 7.7303 12.87 8.2093V12.6293C12.87 13.1103 12.48 13.4993 12 13.4993C11.52 13.4993 11.12 13.1103 11.12 12.6293V8.2093ZM12.01 16.6803C11.52 16.6803 11.13 16.2803 11.13 15.8003C11.13 15.3203 11.52 14.9303 12 14.9303C12.49 14.9303 12.88 15.3203 12.88 15.8003C12.88 16.2803 12.49 16.6803 12.01 16.6803Z" fill="#212121"/>
</svg>
