<svg width="24" height="24" viewBox="0 0 24 24" fill="none" xmlns="http://www.w3.org/2000/svg">
<path d="M22.627 8.59776L22.6208 8.54928C22.6094 8.48861 22.5888 8.43002 22.5598 8.37552L19.5186 3.48C19.5186 3.48 19.1307 3 19.0386 3H6.07856L2.18095 8.20944L2.13487 8.25744L2.12863 8.28C2.09571 8.33289 2.06867 8.38923 2.04799 8.448L2.03215 8.49456C1.98725 8.64358 1.98943 8.80283 2.03839 8.95056L2.05663 9.00288C2.08111 9.0648 2.11135 9.12144 2.14687 9.17184L11.5698 21.108L11.589 21.1354C11.6374 21.1978 11.6965 21.253 11.7685 21.3034L11.8232 21.3374C11.877 21.371 11.9331 21.3979 12.0147 21.4277L12.068 21.4454C12.1602 21.469 12.2403 21.48 12.3186 21.48C12.3978 21.48 12.475 21.4694 12.5792 21.4426L12.643 21.42C12.7054 21.3979 12.7616 21.3706 12.8293 21.3288L12.8715 21.3024C12.944 21.251 13.0021 21.1954 13.0342 21.1517L22.4691 9.20304C22.5526 9.09173 22.607 8.96142 22.6275 8.82384L22.6347 8.76192L22.6386 8.71296L22.627 8.59776ZM17.5678 8.28L18.9109 5.84976L20.253 8.28H17.5678ZM16.7624 9.72H19.9486L14.6379 16.4472L16.7624 9.72ZM15.9742 7.55136L14.0346 4.92H17.4282L15.9742 7.55136ZM9.76112 9.72H14.8774L12.3186 17.821L9.76112 9.72ZM10.2685 8.28L12.3186 5.49792L14.3686 8.28H10.2685ZM8.82464 7.33344L7.93568 4.92H10.603L8.82464 7.33344ZM10.0002 16.4477L4.68895 9.72H7.87568L10.0002 16.4477ZM6.39776 5.86656L7.28719 8.28H4.61935L6.39776 5.86656Z" fill="#212121"/>
</svg>
