<svg width="24" height="24" viewBox="0 0 24 24" fill="none" xmlns="http://www.w3.org/2000/svg">
<path d="M6.15108 13.5C5.69108 13.5 5.35108 13.08 5.44108 12.63C5.48108 12.45 5.50108 12.24 5.50108 12C5.50108 11 4.50108 9.15 4.50108 8.38C4.50108 8.09 4.53108 7.79 4.67108 7.45C4.72503 7.31664 4.81768 7.2025 4.9371 7.1223C5.05652 7.04209 5.19723 6.99949 5.34108 7C5.79108 7 6.14108 7.42 6.05108 7.86C6.01108 8.04 6.00108 8.21 6.00108 8.38C6.00108 9.15 7.00108 11 7.00108 12C7.00108 12.42 6.92108 12.76 6.83108 13.01C6.73108 13.31 6.46108 13.5 6.15108 13.5ZM12.6511 13.5C12.9611 13.5 13.2311 13.31 13.3311 13.01C13.4211 12.76 13.5011 12.42 13.5011 12C13.5011 11 12.5011 9.15 12.5011 8.38C12.5011 8.21 12.5111 8.04 12.5411 7.87C12.5628 7.76548 12.5611 7.65744 12.5361 7.55365C12.5111 7.44986 12.4634 7.3529 12.3965 7.26972C12.3296 7.18655 12.2451 7.11923 12.149 7.07259C12.053 7.02596 11.9478 7.00116 11.8411 7C11.6975 7.00082 11.5574 7.04395 11.4382 7.12399C11.3191 7.20403 11.2261 7.31742 11.1711 7.45C11.0311 7.79 11.0011 8.08 11.0011 8.38C11.0011 9.15 12.0011 11 12.0011 12C12.0011 12.24 11.9811 12.45 11.9411 12.63C11.8511 13.08 12.1911 13.5 12.6511 13.5ZM9.40108 13.5C9.71108 13.5 9.98108 13.31 10.0811 13.01C10.1711 12.76 10.2511 12.42 10.2511 12C10.2511 11 9.25108 9.15 9.25108 8.38C9.25108 8.21 9.26108 8.04 9.29108 7.87C9.31279 7.76548 9.31109 7.65744 9.28609 7.55365C9.26109 7.44986 9.21342 7.3529 9.1465 7.26972C9.07957 7.18655 8.99506 7.11923 8.89903 7.07259C8.803 7.02596 8.69783 7.00116 8.59108 7C8.29108 7 8.03108 7.18 7.92108 7.45C7.78108 7.79 7.75108 8.08 7.75108 8.38C7.75108 9.15 8.75108 11.01 8.75108 12C8.75108 12.24 8.73108 12.45 8.69108 12.63C8.60108 13.08 8.94108 13.5 9.40108 13.5ZM20.4611 6.37C20.5951 6.38795 20.7313 6.37831 20.8614 6.34167C20.9915 6.30502 21.1127 6.24215 21.2176 6.15691C21.3225 6.07167 21.4089 5.96588 21.4714 5.84603C21.5339 5.72618 21.5712 5.59481 21.5811 5.46C21.5911 5.28 21.6011 5.12 21.6011 5C21.6011 3.35 20.2511 2 18.6011 2C17.0611 2 15.7911 3.16 15.6211 4.65L14.5311 15H3.99108C3.39108 15 2.92108 15.54 3.01108 16.14C3.54108 19.46 6.39108 22 9.75108 22C13.2311 22 16.0911 19.27 16.4611 15.77L17.6111 4.9C17.6611 4.39 18.0811 4 18.6011 4C19.1511 4 19.6011 4.45 19.6011 5C19.6011 5.07 19.5911 5.18 19.5911 5.31C19.5511 5.84 19.9311 6.3 20.4611 6.37Z" fill="#212121"/>
</svg>
