<svg width="24" height="24" viewBox="0 0 24 24" fill="none" xmlns="http://www.w3.org/2000/svg">
<g id="Iconly/Light-Outline/Lock">
<g id="Lock">
<path id="Fill 1" fill-rule="evenodd" clip-rule="evenodd" d="M16.923 10.2C16.509 10.2 16.173 9.86401 16.173 9.45001V7.30301C16.173 5.20701 14.468 3.50201 12.372 3.50201H12.356C11.343 3.50201 10.394 3.89201 9.677 4.60301C8.955 5.31701 8.556 6.27001 8.552 7.28601V9.45001C8.552 9.86401 8.216 10.2 7.802 10.2C7.388 10.2 7.052 9.86401 7.052 9.45001V7.30301C7.058 5.86301 7.615 4.53401 8.62 3.53801C9.626 2.54101 10.954 1.96401 12.375 2.00201C15.295 2.00201 17.673 4.38001 17.673 7.30301V9.45001C17.673 9.86401 17.337 10.2 16.923 10.2Z" fill="#212121"/>
<path id="Fill 3" fill-rule="evenodd" clip-rule="evenodd" d="M8.542 10.1288C6.864 10.1288 5.5 11.4928 5.5 13.1708V17.4598C5.5 19.1378 6.864 20.5018 8.542 20.5018H16.183C17.86 20.5018 19.225 19.1378 19.225 17.4598V13.1708C19.225 11.4928 17.86 10.1288 16.183 10.1288H8.542ZM16.183 22.0018H8.542C6.037 22.0018 4 19.9648 4 17.4598V13.1708C4 10.6658 6.037 8.62878 8.542 8.62878H16.183C18.688 8.62878 20.725 10.6658 20.725 13.1708V17.4598C20.725 19.9648 18.688 22.0018 16.183 22.0018Z" fill="#212121"/>
<path id="Fill 5" fill-rule="evenodd" clip-rule="evenodd" d="M12.3623 17.1756C11.9483 17.1756 11.6123 16.8396 11.6123 16.4256V14.2046C11.6123 13.7906 11.9483 13.4546 12.3623 13.4546C12.7763 13.4546 13.1123 13.7906 13.1123 14.2046V16.4256C13.1123 16.8396 12.7763 17.1756 12.3623 17.1756Z" fill="#212121"/>
</g>
</g>
</svg>
