<svg width="238" height="201" viewBox="0 0 238 201" fill="none" xmlns="http://www.w3.org/2000/svg">
<g clip-path="url(#clip0_1344_68063)">
<path d="M193.055 96.7772C193.055 99.5876 192.937 102.369 192.7 105.123C192.514 107.272 192.26 109.402 191.939 111.513C191.597 113.747 191.178 115.955 190.682 118.136V118.139C190.357 119.574 190.001 120.998 189.613 122.41C188.488 126.514 187.088 130.539 185.423 134.456C185.061 135.308 184.687 136.154 184.302 136.994C182.843 140.177 181.21 143.277 179.41 146.28C174.362 154.713 168.06 162.329 160.721 168.866C159.926 169.572 159.121 170.267 158.305 170.95C140.977 185.425 119.106 193.339 96.5273 193.305C43.2161 193.305 0 150.088 0 96.7772C0 43.466 43.2161 0.249875 96.5273 0.249875C118.329 0.2155 139.494 7.59498 156.548 21.1767C157.347 21.8102 158.136 22.4579 158.916 23.1198C162.718 26.3449 166.267 29.8577 169.531 33.6272H169.534C184.735 51.1506 193.089 73.579 193.055 96.7772Z" fill="#35383F"/>
<path d="M28.495 113.451C19.2997 107.978 12.3594 97.7503 13.2604 87.0876C21.6672 95.1338 32.6491 99.9469 44.263 100.676C48.743 100.94 53.7535 100.768 57.0513 103.812C59.1033 105.706 60.0585 108.558 60.2152 111.346C60.3718 114.134 59.8133 116.907 59.2577 119.644L59.4489 120.314C48.7482 120.354 37.6904 118.924 28.495 113.451Z" fill="#424242"/>
<path d="M13.4849 87.0763C17.1692 95.1308 23.2978 101.82 31.0002 106.193C32.656 107.12 34.4164 107.916 36.2871 108.285C38.1133 108.631 39.9988 108.482 41.7477 107.852C43.3902 107.299 45.0062 106.542 46.7548 106.397C48.5978 106.244 50.3041 106.955 51.6447 108.2C53.2849 109.724 54.2798 111.746 55.184 113.758C56.188 115.991 57.1953 118.327 59.1202 119.933C59.3534 120.128 59.0378 120.478 58.805 120.284C55.4561 117.489 54.9094 112.81 52.2325 109.519C50.9834 107.983 49.2639 106.815 47.2213 106.846C45.4351 106.873 43.768 107.652 42.1098 108.227C40.3686 108.831 38.6244 109.115 36.7862 108.849C34.9058 108.577 33.1106 107.848 31.4383 106.968C27.6612 104.943 24.2258 102.337 21.2582 99.2448C17.8517 95.7348 15.0708 91.6679 13.0357 87.2201C12.9098 86.9447 13.3599 86.8027 13.4849 87.0763H13.4849Z" fill="#1F222A"/>
<path d="M28.4362 104.931C27.527 106.123 26.2235 106.954 24.7584 107.274C23.2934 107.595 21.7621 107.384 20.4382 106.679C20.1708 106.536 20.3812 106.114 20.6489 106.257C21.8806 106.915 23.3069 107.112 24.6706 106.811C26.0342 106.51 27.2454 105.731 28.0854 104.615C28.2682 104.373 28.6179 104.69 28.4361 104.931L28.4362 104.931Z" fill="#1F222A"/>
<path d="M40.9514 108.243C40.5688 105.201 39.0538 102.416 36.7085 100.441C36.4759 100.246 36.7914 99.8953 37.0237 100.09C39.4604 102.149 41.0311 105.052 41.4223 108.218C41.4594 108.52 40.9883 108.543 40.9514 108.243V108.243Z" fill="#1F222A"/>
<path d="M18.4369 95.5134C18.8848 95.1253 19.2293 94.6319 19.4395 94.0777C19.6496 93.5235 19.7188 92.9258 19.6408 92.3382C19.6 92.037 20.0712 92.0138 20.1118 92.313C20.1949 92.9626 20.1177 93.6227 19.8869 94.2355C19.656 94.8483 19.2787 95.3953 18.7877 95.8287C18.7448 95.8734 18.6865 95.9001 18.6247 95.9034C18.5628 95.9068 18.502 95.8864 18.4547 95.8465C18.4084 95.8045 18.3806 95.746 18.3773 95.6836C18.374 95.6213 18.3954 95.5601 18.4369 95.5135V95.5134Z" fill="#1F222A"/>
<path d="M43.0241 66.4304C43.055 66.6178 43.0859 66.8051 43.1203 66.9942C43.5485 69.5107 44.1804 71.9882 45.0098 74.4023C45.071 74.59 45.1358 74.7793 45.2022 74.9648C47.2625 80.7596 50.3807 86.1216 54.3984 90.7782C55.9988 92.6297 57.7378 94.3567 59.6002 95.9444C62.1725 98.1368 65.1359 100.309 66.7851 103.14C66.9605 103.434 67.1175 103.738 67.2553 104.05L60.2509 120.029C60.2167 120.057 60.1861 120.087 60.1519 120.116L59.9014 120.766C59.7997 120.691 59.6957 120.611 59.5939 120.536C59.5347 120.493 59.4771 120.446 59.4179 120.402C59.3789 120.372 59.3399 120.342 59.303 120.317C59.29 120.307 59.2771 120.297 59.2677 120.289C59.2308 120.264 59.1992 120.237 59.1659 120.214C58.5837 119.767 58.0036 119.316 57.4256 118.86C57.422 118.858 57.422 118.858 57.4199 118.853C53.0248 115.366 48.8822 111.481 45.4609 107.091C45.3581 106.959 45.2514 106.826 45.1518 106.686C43.6206 104.699 42.2544 102.59 41.0669 100.38C40.4205 99.1679 39.8359 97.9237 39.3153 96.6525C37.9765 93.3651 37.1632 89.8877 36.905 86.3476C36.3915 79.2903 38.1407 72.1474 42.6738 66.8331C42.7898 66.6972 42.9044 66.5647 43.0241 66.4304Z" fill="#424242"/>
<path d="M43.2126 66.5552C41.3049 75.2045 42.1711 84.2351 45.688 92.3641C46.4521 94.1011 47.3783 95.7966 48.6496 97.2177C49.8995 98.5935 51.4949 99.6094 53.2702 100.16C54.9151 100.707 56.661 101.075 58.1444 102.012C59.7081 103 60.6423 104.595 60.9629 106.396C61.3551 108.601 60.9319 110.814 60.4428 112.965C59.8998 115.352 59.2979 117.824 59.8678 120.265C59.9369 120.561 59.4739 120.651 59.4049 120.355C58.4133 116.108 60.7943 112.042 60.6383 107.803C60.5655 105.825 59.8961 103.857 58.2466 102.652C56.8042 101.598 55.0041 101.216 53.3338 100.677C51.5799 100.111 50.0164 99.2873 48.7087 97.9684C47.371 96.6193 46.3765 94.9564 45.5714 93.2466C43.7746 89.3558 42.6007 85.2066 42.0928 80.9512C41.4862 76.0976 41.7143 71.1761 42.7673 66.3995C42.8326 66.1039 43.2774 66.2615 43.2126 66.5552Z" fill="#1F222A"/>
<path d="M44.3998 89.8133C42.9558 90.2182 41.4149 90.0967 40.0523 89.4703C38.6897 88.844 37.5941 87.7537 36.9611 86.3942C36.834 86.1187 37.2561 85.9082 37.3834 86.1841C37.9705 87.4512 38.9912 88.4667 40.2613 89.0473C41.5313 89.6279 42.9671 89.7354 44.3095 89.3504C44.6013 89.2671 44.6899 89.7304 44.3998 89.8133H44.3998Z" fill="#1F222A"/>
<path d="M52.3995 99.9926C53.9252 97.3336 54.3928 94.1972 53.7088 91.2089C53.6408 90.9128 54.1038 90.8229 54.1717 91.1186C54.8776 94.2297 54.3845 97.4926 52.7906 100.256C52.6385 100.519 52.2482 100.254 52.3995 99.9926Z" fill="#1F222A"/>
<path d="M42.085 76.273C42.6763 76.2328 43.2484 76.0463 43.7499 75.7303C44.2514 75.4143 44.6665 74.9787 44.958 74.4626C45.1067 74.1975 45.4969 74.4627 45.3492 74.7261C45.0245 75.2948 44.5654 75.7753 44.0121 76.1256C43.4589 76.476 42.8282 76.6855 42.1753 76.7359C42.1141 76.7458 42.0515 76.7321 42.0001 76.6975C41.9488 76.6629 41.9125 76.61 41.8987 76.5496C41.887 76.4883 41.9001 76.4248 41.935 76.373C41.9698 76.3212 42.0238 76.2853 42.085 76.273V76.273Z" fill="#1F222A"/>
<path d="M66.8653 22.6222L78.6799 160.926L55.0508 162.702V24.3818C57.8664 22.5187 61.9082 22.2272 66.8653 22.6222Z" fill="#1F222A"/>
<path d="M125.184 22.6222L113.369 160.926L136.998 162.702V24.3818C134.183 22.5187 130.141 22.2272 125.184 22.6222Z" fill="#1F222A"/>
<path d="M133.46 168.419H58.3365C57.1319 168.417 55.977 167.938 55.1252 167.086C54.2734 166.235 53.7943 165.08 53.793 163.875V26.4117C53.7943 25.2071 54.2735 24.0522 55.1252 23.2004C55.977 22.3487 57.1319 21.8695 58.3365 21.8682H133.46C134.664 21.8695 135.819 22.3487 136.671 23.2004C137.523 24.0522 138.002 25.2071 138.003 26.4117V163.875C138.002 165.08 137.523 166.235 136.671 167.086C135.819 167.938 134.664 168.417 133.46 168.419ZM58.3365 23.3764C57.5317 23.3773 56.7602 23.6974 56.1912 24.2664C55.6222 24.8354 55.3021 25.6069 55.3012 26.4117V163.875C55.3021 164.68 55.6222 165.451 56.1912 166.02C56.7602 166.59 57.5317 166.91 58.3365 166.911H133.46C134.264 166.91 135.036 166.59 135.605 166.02C136.174 165.451 136.494 164.68 136.495 163.875V26.4117C136.494 25.6069 136.174 24.8354 135.605 24.2664C135.036 23.6974 134.264 23.3773 133.46 23.3764L58.3365 23.3764Z" fill="#1F222A"/>
<path d="M137.251 44.7432H54.5488V46.2514H137.251V44.7432Z" fill="#1F222A"/>
<path d="M137.251 69.8804H54.5488V71.3886H137.251V69.8804Z" fill="#1F222A"/>
<path d="M81.3852 22.6223H79.877V91.2472H81.3852V22.6223Z" fill="#1F222A"/>
<path d="M111.92 22.6223H110.412V91.2472H111.92V22.6223Z" fill="#1F222A"/>
<path d="M146.676 172.566H47.6347C45.8347 172.566 44.1084 171.851 42.8355 170.578C41.5627 169.306 40.8477 167.579 40.8477 165.779C40.8477 163.979 41.5627 162.253 42.8355 160.98C44.1084 159.707 45.8347 158.992 47.6347 158.992H146.676C148.476 158.992 150.202 159.707 151.475 160.98C152.748 162.253 153.463 163.979 153.463 165.779C153.463 167.579 152.748 169.306 151.475 170.578C150.202 171.851 148.476 172.566 146.676 172.566Z" fill="#1F222A"/>
<path d="M137.25 87.728H55.0508V92.7555H137.25V87.728Z" fill="#1F222A"/>
<path d="M81.6192 103.728L81.5149 103.678C75.9114 100.971 68.5735 100.973 57.7216 103.686L57.6057 103.715L57.571 103.601C56.423 99.8369 55.1225 95.5736 57.5656 93.4761C57.5998 87.3211 62.9988 82.3232 69.6304 82.3232C76.2606 82.3232 81.6589 87.3186 81.6951 93.4719C85.3293 96.2505 83.5973 100.357 81.6779 103.628L81.6192 103.728Z" fill="#2F2E41"/>
<path d="M116.061 90.5485C115.961 91.0472 115.752 91.5179 115.45 91.9273C115.148 92.3367 114.76 92.6749 114.313 92.9181C113.866 93.1613 113.371 93.3035 112.864 93.3348C112.356 93.3661 111.847 93.2856 111.374 93.0991L91.5715 112.999L89.8047 106.82L109.472 88.3403C109.838 87.5659 110.476 86.9526 111.264 86.6167C112.052 86.2808 112.935 86.2456 113.748 86.5178C114.56 86.79 115.244 87.3506 115.67 88.0935C116.097 88.8364 116.236 89.7099 116.061 90.5485L116.061 90.5485Z" fill="#FFB6B6"/>
<path d="M67.1179 109.706C67.1179 109.706 65.3213 113.778 69.7544 116.288C74.1875 118.799 89.6814 115.33 92.1955 114.846C94.7095 114.362 104.099 100.31 104.099 100.31L102.772 93.4182L90.3185 104.228L67.1179 109.706Z" fill="#101010"/>
<path d="M63.8497 132.221L64.1011 136.997C64.1011 136.997 63.3591 141.228 63.9693 142.141C64.5749 143.049 81.1005 143.164 81.1005 143.164C81.1005 143.164 82.1924 137.278 83.133 132.125L63.8497 132.221Z" fill="#FFB6B6"/>
<path d="M111.361 195.371L114.816 194.673L113.827 180.719L108.729 181.749L111.361 195.371Z" fill="#FFB6B6"/>
<path d="M116.31 177.211L119.522 175.767L115.356 162.415L110.615 164.547L116.31 177.211Z" fill="#FFB6B6"/>
<path d="M119.108 169.688L113.06 173.112L98.1456 149.146C87.6756 156.2 77.4372 159.578 67.116 161.38C63.6264 162.002 60.0686 161.687 59.3987 158.135C59.3673 157.969 59.3424 157.802 59.3238 157.634C58.9117 153.755 63.7374 148.782 64.3509 144.036L77.5581 143.243L79.1868 145.331L94.4605 135.941C97.5321 134.052 101.572 135.074 103.484 138.222C103.585 138.388 103.679 138.559 103.765 138.733L119.108 169.688Z" fill="#2F2E41"/>
<path d="M115.408 185.81L108.488 186.454L95.9409 160.793C83.4991 162.933 71.7613 163.618 61.6087 161.03C58.1712 160.166 56.07 156.616 56.9155 153.102C56.955 152.938 57.0007 152.775 57.0526 152.615C58.2677 148.907 61.4483 146.284 63.9543 142.207L82.2585 142.485L80.214 149.539L97.9953 147.238C101.571 146.775 104.837 149.364 105.29 153.019C105.313 153.212 105.329 153.406 105.336 153.601L115.408 185.81Z" fill="#2F2E41"/>
<path d="M70.995 100.08C75.0999 100.08 78.4276 96.752 78.4276 92.6471C78.4276 88.5423 75.0999 85.2146 70.995 85.2146C66.8902 85.2146 63.5625 88.5423 63.5625 92.6471C63.5625 96.752 66.8902 100.08 70.995 100.08Z" fill="#FFB6B6"/>
<path d="M66.6396 102.763L73.4545 103.565C73.7419 103.599 74.0116 103.721 74.226 103.915C74.4404 104.11 74.5888 104.366 74.6506 104.649L75.7344 109.608L82.4905 117.564C82.4905 117.564 84.9165 122.113 84.0068 127.269C83.097 132.424 82.6972 136.255 82.6972 136.255C82.6972 136.255 64.5742 143.05 63.9676 142.14C63.3611 141.23 63.1643 137.098 63.1643 137.098L60.7383 110.108C60.7383 110.108 63.4676 105.559 64.9839 105.559C65.9625 105.526 65.8369 103.324 66.6396 102.763Z" fill="#101010"/>
<path d="M82.8808 137.914C83.8365 137.914 84.6112 136.984 84.6112 135.837C84.6112 134.691 83.8365 133.761 82.8808 133.761C81.9251 133.761 81.1504 134.691 81.1504 135.837C81.1504 136.984 81.9251 137.914 82.8808 137.914Z" fill="#101010"/>
<path d="M109.646 191.778L114.914 189.139L115.906 191.455L122.567 192.801C122.896 192.867 123.195 193.037 123.421 193.286C123.646 193.534 123.786 193.848 123.821 194.182C123.855 194.516 123.782 194.852 123.612 195.142C123.442 195.431 123.184 195.658 122.875 195.79L116.44 198.549L114.349 196.734L114.897 199.21L112.471 200.25L109.646 191.778Z" fill="#2F2E41"/>
<path d="M114.803 176.1L120.023 173.368L121.056 175.667L127.739 176.896C128.069 176.956 128.371 177.121 128.601 177.365C128.831 177.61 128.977 177.921 129.017 178.255C129.057 178.588 128.99 178.925 128.825 179.217C128.66 179.51 128.406 179.741 128.1 179.879L121.714 182.75L119.591 180.972L120.184 183.439L117.776 184.521L114.803 176.1Z" fill="#2F2E41"/>
<path d="M66.749 90.3159C64.7854 90.3191 62.8689 89.7144 61.2626 88.585L61.209 88.5474V88.482C61.2111 86.5826 61.9666 84.7617 63.3097 83.4186C64.6528 82.0755 66.4737 81.32 68.3731 81.3179H71.3896C73.289 81.32 75.11 82.0755 76.453 83.4186C77.7961 84.7617 78.5516 86.5826 78.5537 88.482C78.5517 88.9167 78.3801 89.3335 78.0754 89.6436C77.7706 89.9536 77.3569 90.1324 76.9223 90.142L66.9185 90.3144C66.8621 90.3154 66.8054 90.3159 66.749 90.3159Z" fill="#2F2E41"/>
<path d="M79.0575 87.1061C80.0193 86.5508 80.18 85.0285 79.4165 83.7059C78.6529 82.3834 77.2542 81.7615 76.2923 82.3168C75.3305 82.8721 75.1698 84.3944 75.9333 85.7169C76.6969 87.0394 78.0956 87.6614 79.0575 87.1061Z" fill="#2F2E41"/>
<path d="M64.014 85.6307C65.0939 84.5508 65.3326 83.0388 64.5473 82.2535C63.7619 81.4681 62.2499 81.7069 61.1701 82.7867C60.0902 83.8666 59.8515 85.3786 60.6368 86.1639C61.4222 86.9493 62.9342 86.7105 64.014 85.6307Z" fill="#2F2E41"/>
<path d="M129.793 153.588H122.375C122.207 153.587 122.042 153.623 121.89 153.694C121.738 153.764 121.603 153.866 121.495 153.994C121.222 153.944 120.94 153.959 120.673 154.039C120.407 154.119 120.163 154.26 119.962 154.453C119.761 154.645 119.608 154.882 119.516 155.145C119.425 155.407 119.396 155.688 119.434 155.964C119.472 156.239 119.575 156.502 119.734 156.73C119.893 156.958 120.104 157.146 120.349 157.277C120.594 157.408 120.868 157.479 121.146 157.484C121.424 157.489 121.699 157.428 121.949 157.306L122.565 159.305C122.637 159.542 122.784 159.749 122.984 159.897C123.183 160.044 123.425 160.123 123.673 160.123H128.496C128.744 160.123 128.985 160.044 129.185 159.897C129.384 159.749 129.531 159.542 129.604 159.305L130.901 155.088C130.955 154.914 130.967 154.731 130.936 154.552C130.906 154.373 130.834 154.204 130.726 154.058C130.618 153.912 130.478 153.794 130.316 153.712C130.154 153.63 129.975 153.588 129.793 153.588ZM121.182 156.981C120.849 156.981 120.529 156.849 120.294 156.613C120.058 156.377 119.925 156.058 119.925 155.724C119.925 155.391 120.058 155.071 120.294 154.836C120.529 154.6 120.849 154.467 121.182 154.467C121.205 154.467 121.227 154.473 121.249 154.474C121.199 154.677 121.205 154.889 121.267 155.088L121.798 156.813C121.611 156.922 121.399 156.98 121.182 156.981Z" fill="#3F3D56"/>
<path d="M96.666 148.131C96.1594 148.178 95.6487 148.113 95.1698 147.941C94.6909 147.769 94.2556 147.495 93.8944 147.136C93.5332 146.778 93.255 146.345 93.0793 145.867C92.9037 145.39 92.8348 144.88 92.8777 144.373L68.1328 131.112L73.5451 127.647L96.8908 141.186C97.7377 141.314 98.5081 141.749 99.056 142.407C99.6038 143.065 99.8911 143.902 99.8634 144.758C99.8357 145.614 99.4949 146.431 98.9056 147.052C98.3163 147.674 97.5194 148.058 96.666 148.131Z" fill="#FFB6B6"/>
<path d="M64.271 106.743C64.271 106.743 59.8553 106.19 58.722 111.158C57.5886 116.125 65.3572 129.972 66.5425 132.241C67.7278 134.511 83.883 139.474 83.883 139.474L90.1037 136.225L76.1749 127.397L64.271 106.743Z" fill="#101010"/>
<path d="M95.396 86.2197H96.9042C97.6376 86.2197 98.3409 86.5111 98.8594 87.0296C99.378 87.5482 99.6693 88.2515 99.6693 88.9848H92.6309C92.6309 88.2515 92.9222 87.5482 93.4407 87.0296C93.9593 86.5111 94.6626 86.2197 95.396 86.2197Z" fill="#1F222A"/>
<path d="M47.571 34.6293C55.8233 34.6293 62.5131 27.9395 62.5131 19.6872C62.5131 11.4349 55.8233 4.74512 47.571 4.74512C39.3187 4.74512 32.6289 11.4349 32.6289 19.6872C32.6289 27.9395 39.3187 34.6293 47.571 34.6293Z" fill="#FF6584"/>
<path d="M93.3191 18.9083C89.3647 14.76 84.7721 10.9757 79.3353 8.97593C77.8209 8.41652 76.2506 8.02191 74.6516 7.79892C74.6387 7.79716 74.6265 7.79977 74.6138 7.79873C74.5878 7.79203 74.5614 7.78685 74.5348 7.78322C72.2984 7.49832 70.0285 7.63536 67.8427 8.18724C66.7737 8.45547 65.7309 8.81874 64.7267 9.2727C63.719 9.76435 62.7425 10.3177 61.8029 10.9297C59.8142 12.1201 57.6245 12.937 55.342 13.34C54.1963 13.5463 53.0358 13.6602 51.8719 13.6806C50.8619 13.7008 49.9095 13.7359 48.9526 14.1008C47.9305 14.4852 47.0123 15.1031 46.2714 15.9053C45.5305 16.7076 44.9874 17.6719 44.6854 18.7213C44.6621 18.8147 44.6691 18.9132 44.7054 19.0024C44.7417 19.0916 44.8054 19.167 44.8873 19.2176C45.1462 19.403 45.3985 19.6133 45.6704 19.7785C45.9124 19.8892 46.1708 19.9597 46.4354 19.9871C46.8678 20.0783 47.3007 20.1669 47.7342 20.2528C49.3311 20.5692 50.9346 20.8493 52.5448 21.0931C55.803 21.5863 59.0787 21.9337 62.3721 22.1354C68.9696 22.535 75.5898 22.336 82.1514 21.5409C85.8391 21.0943 89.5017 20.4607 93.1252 19.6428C93.1986 19.6214 93.2651 19.5814 93.3185 19.5266C93.3718 19.4719 93.4101 19.4043 93.4296 19.3303C93.4491 19.2564 93.4492 19.1788 93.4298 19.1048C93.4105 19.0309 93.3724 18.9632 93.3191 18.9083Z" fill="#424242"/>
<path d="M48.2787 28.8988C46.7642 28.3394 45.1939 27.9448 43.5949 27.7218C43.5821 27.72 43.5699 27.7226 43.5571 27.7216C43.5311 27.7149 43.5047 27.7097 43.4781 27.7061C41.2418 27.4212 38.9718 27.5582 36.786 28.1101C35.7171 28.3783 34.6743 28.7416 33.6701 29.1956C32.6623 29.6872 31.6859 30.2406 30.7463 30.8525C28.7575 32.043 26.5679 32.8599 24.2854 33.2629C23.1396 33.4691 21.9792 33.583 20.8153 33.6034C19.8053 33.6237 18.8529 33.6588 17.896 34.0236C16.8738 34.408 15.9557 35.026 15.2148 35.8282C14.4739 36.6304 13.9308 37.5947 13.6287 38.6441C13.6054 38.7376 13.6124 38.836 13.6487 38.9252C13.685 39.0144 13.7488 39.0898 13.8307 39.1404C14.0895 39.3258 14.3419 39.5361 14.6138 39.7013C14.8557 39.812 15.1141 39.8825 15.3788 39.9099C15.8111 40.0012 16.2441 40.0897 16.6775 40.1756C18.2745 40.492 19.878 40.7721 21.4882 41.0159C24.7464 41.5091 28.0221 41.8566 31.3155 42.0582C37.913 42.4578 44.5332 42.2589 51.0948 41.4637C54.7825 41.0171 58.4451 40.3836 62.0686 39.5657C62.1419 39.5442 62.2085 39.5042 62.2618 39.4494C62.3152 39.3947 62.3534 39.3271 62.373 39.2532C62.3925 39.1793 62.3925 39.1016 62.3732 39.0276C62.3538 38.9537 62.3157 38.886 62.2625 38.8311C58.3081 34.6829 53.7155 30.8986 48.2787 28.8988Z" fill="#424242"/>
<path d="M156.034 140.29L144.543 125.195L135.477 130.321L154.689 153.136L156.034 140.29Z" fill="#3F3D56"/>
<path d="M182.502 115.751C182.758 122.077 183.738 128.353 185.423 134.456C185.061 135.308 184.688 136.154 184.302 136.995C182.844 140.177 181.211 143.277 179.41 146.28C174.362 154.713 168.06 162.329 160.721 168.866C159.927 169.573 159.121 170.267 158.305 170.95C153.652 164.535 151.141 157.456 150.148 150.172C150.022 149.247 149.919 148.311 149.841 147.381V147.376C149.651 145.116 149.59 142.847 149.658 140.579C149.66 140.398 149.665 140.215 149.673 140.031C149.761 137.608 149.98 135.18 150.309 132.774V132.772C150.347 132.495 150.384 132.219 150.427 131.942C150.548 131.112 150.684 130.283 150.832 129.458C151.695 124.703 152.9 120.016 154.437 115.434V115.432C154.479 115.299 154.522 115.168 154.57 115.037C154.736 114.539 154.904 114.047 155.078 113.554C155.088 113.515 155.102 113.478 155.118 113.441C155.341 112.797 155.57 112.159 155.804 111.525C155.867 111.35 155.932 111.174 156 110.998C156.264 110.291 156.533 109.59 156.807 108.899C156.892 108.677 156.98 108.456 157.068 108.238C157.136 108.069 157.202 107.901 157.272 107.735V107.732C157.672 106.744 158.076 105.776 158.486 104.826C159.635 102.157 160.816 99.6456 161.968 97.3304L161.97 97.3279C166.749 87.743 171.093 81.519 171.093 81.519L187.404 86.7979C185.459 90.2492 183.953 95.3395 183.128 101.345C182.493 106.118 182.284 110.938 182.502 115.749L182.502 115.751Z" fill="#3F3D56"/>
<path d="M155.392 114.215C155.297 113.991 155.189 113.773 155.078 113.554C154.505 112.444 153.766 111.427 152.889 110.538C152.758 110.404 152.622 110.271 152.481 110.145C150.967 108.751 149.126 107.76 147.128 107.266C145.13 106.771 143.039 106.788 141.049 107.315L141.039 107.32L140.963 107.34L140.981 107.426C141.056 107.824 141.166 108.215 141.308 108.594C141.346 108.698 141.388 108.796 141.431 108.894C141.449 108.939 141.471 108.979 141.491 109.024C141.491 109.024 141.489 109.027 141.494 109.027C141.494 109.029 141.496 109.032 141.496 109.034C141.544 109.127 141.589 109.223 141.64 109.313C141.537 109.215 141.439 109.115 141.343 109.012C141.25 108.916 141.165 108.816 141.079 108.715C140.786 108.373 140.521 108.009 140.287 107.624L140.247 107.556L140.177 107.584C139.228 107.913 138.323 108.356 137.482 108.904L137.391 108.964C136.749 109.386 136.025 109.668 135.267 109.791C134.509 109.915 133.733 109.878 132.99 109.683C131.818 109.381 130.597 109.326 129.403 109.521C128.209 109.716 127.069 110.157 126.055 110.817C125.383 111.255 124.775 111.784 124.25 112.39C124.204 112.443 124.159 112.498 124.114 112.551C124.018 112.667 123.928 112.785 123.84 112.906C122.895 114.169 122.315 115.667 122.163 117.237L122.158 117.295L122.206 117.327C123.057 117.91 124.019 118.311 125.031 118.504C124.395 118.592 123.751 118.609 123.111 118.551H123.108C122.818 118.527 122.529 118.487 122.244 118.431L122.191 118.421H122.188L122.123 118.408L122.133 118.529C122.208 120.065 122.691 121.553 123.533 122.84L123.558 122.875C123.568 122.888 123.576 122.901 123.584 122.915C123.94 123.461 124.237 124.043 124.468 124.652C125.056 126.166 125.185 127.819 124.84 129.406C124.45 131.103 124.58 132.878 125.213 134.5C125.846 136.123 126.953 137.516 128.39 138.5C129.652 139.369 131.123 139.885 132.651 139.996C132.859 140.014 133.07 140.024 133.282 140.024C134.49 140.027 135.686 139.778 136.793 139.292L136.833 139.277L136.843 139.232C137.056 138.545 137.355 137.888 137.733 137.276C137.61 137.758 137.547 138.254 137.547 138.752V138.918L137.691 138.835C137.814 138.762 137.939 138.684 138.053 138.611C138.732 138.168 139.347 137.633 139.88 137.022C140.089 136.781 140.3 136.547 140.521 136.313L140.524 136.311C140.953 135.853 141.408 135.406 141.881 134.979C142.886 134.076 143.962 133.254 145.099 132.523C146.234 131.794 147.421 131.148 148.65 130.592H148.653C148.791 130.527 148.932 130.464 149.07 130.404C149.682 130.137 150.272 129.821 150.832 129.459C150.852 129.446 150.87 129.436 150.888 129.423C153.318 127.832 155.104 125.43 155.929 122.645C156.754 119.86 156.564 116.873 155.392 114.215L155.392 114.215Z" fill="#101010"/>
<path opacity="0.15" d="M125.254 132.975C125.186 133.28 125.134 133.589 125.099 133.901C124.631 132.422 124.563 130.845 124.902 129.332C124.954 129.1 124.994 128.866 125.024 128.63C125.489 130.032 125.568 131.532 125.254 132.975Z" fill="black"/>
<path opacity="0.15" d="M125.443 122.071C124.698 122.174 123.943 122.178 123.198 122.081C123.002 121.713 122.834 121.331 122.693 120.939C123.523 121.499 124.459 121.884 125.443 122.071Z" fill="black"/>
<path opacity="0.15" d="M123.14 118.471C122.865 119.174 122.682 119.909 122.596 120.659C122.367 119.945 122.232 119.204 122.194 118.455L122.188 118.334L122.306 118.357C122.582 118.409 122.86 118.447 123.14 118.471Z" fill="black"/>
<path opacity="0.15" d="M126.118 110.742C127.132 110.082 128.271 109.64 129.465 109.444C130.658 109.249 131.879 109.304 133.05 109.607C133.793 109.803 134.57 109.841 135.328 109.717C136.087 109.594 136.811 109.311 137.454 108.889L137.545 108.829C138.385 108.28 139.289 107.836 140.238 107.506L140.31 107.481L140.35 107.547C140.725 108.167 141.179 108.735 141.701 109.237C141.384 108.646 141.162 108.009 141.043 107.349L141.026 107.262L141.112 107.24C142.978 106.746 144.935 106.7 146.822 107.106C148.71 107.512 150.474 108.359 151.972 109.577C153.47 110.795 154.659 112.35 155.441 114.115C156.224 115.88 156.578 117.805 156.475 119.733C156.079 118.161 155.375 116.684 154.404 115.386C153.433 114.088 152.214 112.996 150.818 112.173C149.421 111.35 147.876 110.812 146.27 110.59C144.665 110.369 143.031 110.468 141.464 110.883L141.378 110.905L141.395 110.992C141.514 111.652 141.736 112.29 142.053 112.88C141.531 112.378 141.077 111.81 140.702 111.19L140.662 111.124L140.59 111.149C139.642 111.479 138.737 111.923 137.897 112.472L137.806 112.532C137.164 112.954 136.439 113.237 135.681 113.36C134.922 113.484 134.145 113.446 133.402 113.25C131.456 112.745 129.395 112.931 127.571 113.775C125.746 114.62 124.271 116.071 123.398 117.882C123.008 117.695 122.631 117.484 122.268 117.251L122.219 117.22L122.225 117.162C122.35 115.868 122.765 114.619 123.439 113.507C124.113 112.396 125.029 111.451 126.118 110.742Z" fill="black"/>
<path d="M219.569 46.5127L219.33 46.3543L219.156 46.5806C217.814 48.2707 216.746 50.1615 215.992 52.1837C216.096 49.8541 216.503 47.548 217.203 45.3237L217.279 45.0899L217.062 44.9667C214.25 43.3741 211.253 42.1315 208.139 41.2665L207.799 41.176C205.413 40.5211 203.191 39.3704 201.278 37.799C199.366 36.2276 197.806 34.2708 196.701 32.0562C194.133 26.9736 190.076 22.7951 185.071 20.0782C180.066 17.3614 174.352 16.2354 168.691 16.8506H168.688C168.628 16.8557 168.565 16.8632 168.505 16.8707C168.402 16.8808 168.301 16.8934 168.201 16.9059C167.994 16.9336 167.793 16.9612 167.592 16.9914C167.421 17.0165 167.248 17.0442 167.077 17.0744C166.986 17.0869 166.898 17.102 166.81 17.1196C166.722 17.1347 166.632 17.1498 166.544 17.1674H166.542C164.854 17.4866 163.199 17.9621 161.599 18.5876H161.597V18.5901L161.192 18.7485C160.775 18.9194 160.361 19.1004 159.95 19.2915C159.857 19.3342 159.767 19.3794 159.674 19.4222C159.649 19.4347 159.621 19.4473 159.596 19.4624C159.332 19.5881 159.071 19.7188 158.812 19.857C158.774 19.8746 158.736 19.8948 158.699 19.9149L158.457 20.0431C157.927 20.3296 157.406 20.6338 156.894 20.9555C156.851 20.9807 156.811 21.0058 156.768 21.0335C156.723 21.0636 156.675 21.0938 156.63 21.124C156.602 21.139 156.575 21.1592 156.547 21.1768C156.469 21.2245 156.394 21.2748 156.318 21.3276C156.167 21.4256 156.016 21.5262 155.868 21.6292C155.715 21.7323 155.564 21.8404 155.413 21.9485L155.262 22.0566L155.29 22.2426C155.315 22.3959 155.338 22.5493 155.365 22.7001C155.391 22.8509 155.416 22.9992 155.443 23.1475C155.486 23.3964 155.534 23.6427 155.582 23.8815C155.614 24.0399 155.644 24.1957 155.68 24.3491C155.712 24.5075 155.748 24.6658 155.785 24.8242C155.858 25.151 155.936 25.4677 156.019 25.7794C156.059 25.9353 156.102 26.0911 156.147 26.2444C156.172 26.3374 156.197 26.4305 156.225 26.521C156.245 26.5838 156.265 26.6466 156.285 26.7095C156.291 26.7296 156.296 26.7522 156.303 26.7748C156.309 26.7961 156.315 26.8171 156.323 26.8377C156.351 26.9307 156.378 27.0212 156.406 27.1092C156.421 27.1569 156.436 27.2047 156.454 27.2499C156.489 27.358 156.527 27.4686 156.564 27.5742C156.605 27.6949 156.647 27.8155 156.69 27.9337C156.7 27.9638 156.71 27.9915 156.72 28.0217C156.728 28.0443 156.735 28.0669 156.745 28.0895C156.756 28.1147 156.766 28.1423 156.776 28.1674C156.818 28.2806 156.861 28.3962 156.906 28.5093C156.921 28.5495 156.937 28.5923 156.954 28.6325C157.362 29.6565 157.862 30.641 158.45 31.5736C157.799 31.0155 157.172 30.4239 156.57 29.7989C155.639 28.8324 154.782 27.798 154.006 26.7045C153.943 26.619 153.88 26.531 153.822 26.443C153.704 26.2746 153.588 26.1062 153.475 25.9353C153.354 25.7593 153.239 25.5758 153.126 25.3948C153.05 25.2741 152.975 25.151 152.902 25.0303C152.829 24.9147 152.761 24.8016 152.696 24.6859L152.5 24.3491H152.497V24.3516L152.221 24.6231C152.11 24.7312 152 24.8393 151.891 24.9473C148.513 28.3467 146.066 32.5581 144.785 37.1767L144.747 37.3149L144.71 37.4582C144.637 37.7146 144.564 37.9635 144.486 38.2173V38.2199C144.411 38.4712 144.33 38.7226 144.245 38.9689C144.167 39.2027 144.086 39.434 144.001 39.6652C143.973 39.7432 143.943 39.8211 143.91 39.899C143.858 40.0499 143.8 40.1982 143.742 40.349C143.714 40.4169 143.687 40.4872 143.659 40.5551C143.591 40.721 143.523 40.8869 143.455 41.0503C143.445 41.0755 143.433 41.1031 143.42 41.1282C143.4 41.1785 143.377 41.2288 143.357 41.2766C143.305 41.3972 143.249 41.5204 143.196 41.641C143.159 41.719 143.124 41.7994 143.088 41.8773C143.073 41.9125 143.056 41.9477 143.041 41.9829C142.948 42.184 142.852 42.3826 142.752 42.5787C142.638 42.8099 142.523 43.0412 142.4 43.2674C142.292 43.4786 142.178 43.6847 142.06 43.8908C141.857 44.2553 141.643 44.6173 141.422 44.9692C141.336 45.105 141.251 45.2407 141.163 45.3765C141.143 45.4091 141.123 45.4418 141.103 45.472C141.03 45.5901 140.954 45.7033 140.876 45.8189C140.824 45.8968 140.771 45.9747 140.718 46.0501C140.63 46.1859 140.537 46.3166 140.441 46.4448C140.416 46.485 140.389 46.5227 140.361 46.5604C140.22 46.7565 140.079 46.9475 139.936 47.1386C139.931 47.1411 139.931 47.1436 139.929 47.1461C139.924 47.1461 139.924 47.1486 139.921 47.1512C139.858 47.2341 139.795 47.3171 139.73 47.3975C139.645 47.5156 139.552 47.6313 139.459 47.7444C139.308 47.9354 139.149 48.129 138.988 48.3175C138.983 48.3226 138.981 48.3276 138.976 48.3301C138.143 49.3087 137.241 50.2261 136.276 51.0751C136.259 51.0902 136.246 51.1053 136.228 51.1178C136.093 51.236 135.957 51.3541 135.816 51.4698C135.758 51.5175 135.701 51.5653 135.643 51.613C135.547 51.6935 135.449 51.7739 135.354 51.8468C135.342 51.8584 135.33 51.8685 135.316 51.877C135.23 51.9474 135.148 52.0127 135.062 52.0781C134.959 52.161 134.856 52.239 134.75 52.3169C134.253 52.6939 133.741 53.0501 133.217 53.3852C133.139 53.438 133.056 53.4908 132.976 53.5411C132.928 53.5712 132.88 53.6014 132.835 53.6265C132.644 53.7447 132.453 53.8603 132.262 53.9709C132.071 54.084 131.875 54.1921 131.681 54.2977C131.266 54.5239 130.857 54.7602 130.457 55.0066C130.256 55.1323 130.055 55.258 129.856 55.3862C129.067 55.899 128.307 56.4478 127.576 57.0326C126.846 57.6179 126.145 58.2395 125.477 58.8953C125.394 58.9758 125.311 59.0587 125.228 59.1442C125.062 59.3076 124.902 59.4735 124.748 59.6394C124.502 59.8933 124.266 60.1547 124.032 60.4186C122.799 61.8174 121.708 63.3347 120.774 64.9484C120.305 65.7542 119.879 66.584 119.497 67.4345C119.208 68.0704 118.944 68.7215 118.705 69.3801C118.547 69.82 118.399 70.2641 118.26 70.7124C118.192 70.9361 118.127 71.1623 118.064 71.3886C117.851 72.1553 117.672 72.9295 117.526 73.7062C117.408 74.3296 117.313 74.9539 117.24 75.579C117.202 75.8932 117.172 76.2074 117.144 76.5191C117.079 77.2852 117.046 78.0521 117.045 78.8197C117.041 81.1226 117.32 83.4172 117.878 85.6515C118.001 86.1442 118.138 86.6344 118.288 87.122C118.363 87.3659 118.444 87.6072 118.524 87.8485C118.728 88.4518 118.953 89.0492 119.2 89.6408C119.349 89.9952 119.505 90.3471 119.668 90.6965C120.706 92.9178 122.031 94.9934 123.609 96.8703C123.868 97.1795 124.136 97.4836 124.411 97.7828C124.414 97.7828 124.411 97.7853 124.411 97.7853C125.095 98.5313 125.82 99.2396 126.581 99.9069H126.583C126.887 100.176 127.197 100.436 127.511 100.689C127.513 100.686 127.513 100.689 127.513 100.689C127.83 100.945 128.149 101.191 128.476 101.43C128.639 101.548 128.805 101.666 128.974 101.785C129.303 102.018 129.639 102.244 129.982 102.461H129.984C130.326 102.682 130.673 102.893 131.025 103.094C131.731 103.499 132.455 103.879 133.199 104.223L133.325 104.281L133.453 104.223C134.646 103.686 135.876 103.235 137.133 102.873C137.41 102.793 137.689 102.72 137.965 102.649C138.664 102.476 139.368 102.33 140.077 102.212C139.386 102.558 138.719 102.951 138.081 103.386C137.586 103.72 137.098 104.085 136.608 104.487C136.445 104.62 136.281 104.758 136.118 104.899L135.711 105.251L136.221 105.419C136.407 105.48 136.593 105.54 136.779 105.595C137.033 105.676 137.284 105.749 137.531 105.817C138.068 105.967 138.61 106.101 139.154 106.216C139.288 106.244 139.418 106.272 139.552 106.299C139.81 106.35 140.072 106.4 140.333 106.445C140.344 106.448 140.355 106.449 140.366 106.45C140.638 106.495 140.912 106.538 141.183 106.576C141.688 106.649 142.193 106.707 142.699 106.749C142.754 106.757 142.809 106.759 142.867 106.762C142.99 106.772 143.111 106.782 143.234 106.789C143.506 106.807 143.78 106.82 144.054 106.83C144.074 106.83 144.091 106.832 144.111 106.832C144.25 106.837 144.388 106.842 144.526 106.845C144.526 106.845 144.526 106.847 144.529 106.845C144.667 106.847 144.805 106.85 144.944 106.85H145.708C145.851 106.85 145.994 106.852 146.14 106.852C146.341 106.852 146.545 106.855 146.746 106.857C146.799 106.857 146.854 106.86 146.909 106.86C147.231 106.865 147.553 106.872 147.875 106.88C147.895 106.88 147.915 106.882 147.935 106.882C148.257 106.893 148.578 106.903 148.9 106.918C148.971 106.92 149.041 106.923 149.114 106.928C149.423 106.94 149.732 106.955 150.041 106.973C150.129 106.978 150.22 106.986 150.31 106.991C150.544 107.003 150.78 107.018 151.014 107.036C151.152 107.043 151.288 107.053 151.426 107.066C151.985 107.109 152.54 107.156 153.098 107.212C153.284 107.227 153.47 107.247 153.656 107.267C154.154 107.32 154.653 107.378 155.154 107.441C155.378 107.466 155.602 107.496 155.825 107.526C155.851 107.528 155.876 107.531 155.901 107.536C156.177 107.574 156.451 107.611 156.728 107.652C156.909 107.677 157.09 107.704 157.271 107.732C157.457 107.76 157.643 107.787 157.829 107.82C157.929 107.835 158.03 107.853 158.133 107.87C158.374 107.908 158.618 107.948 158.862 107.994C158.884 107.996 158.906 107.999 158.927 108.004C159.445 108.094 159.966 108.19 160.483 108.293C160.788 108.35 161.089 108.411 161.391 108.474C161.627 108.521 161.863 108.572 162.1 108.622C162.14 108.63 162.18 108.64 162.22 108.65C162.229 108.652 162.239 108.654 162.248 108.655C162.605 108.733 162.964 108.813 163.321 108.898C164.561 109.185 165.798 109.503 167.034 109.854C167.318 109.932 167.602 110.015 167.886 110.098C168.007 110.133 168.125 110.168 168.243 110.203C168.49 110.276 168.733 110.349 168.98 110.427C169.196 110.492 169.415 110.56 169.631 110.63C169.767 110.673 169.902 110.716 170.038 110.761C170.249 110.827 170.46 110.894 170.669 110.967C170.848 111.023 171.024 111.08 171.199 111.143C171.451 111.226 171.705 111.312 171.956 111.402C172.029 111.427 172.104 111.452 172.177 111.48C172.484 111.586 172.791 111.694 173.097 111.807C173.396 111.915 173.696 112.026 173.992 112.136C174.198 112.214 174.404 112.29 174.608 112.37C174.837 112.458 175.066 112.546 175.292 112.636C175.619 112.765 175.948 112.895 176.275 113.029C176.576 113.149 176.875 113.272 177.177 113.401C177.232 113.423 177.29 113.446 177.346 113.471C177.607 113.579 177.868 113.692 178.127 113.805C178.296 113.876 178.462 113.949 178.628 114.021C179.352 114.338 180.075 114.666 180.797 115.004H180.799C181.252 115.218 181.712 115.422 182.174 115.615C182.283 115.66 182.391 115.706 182.501 115.748C182.685 115.826 182.871 115.899 183.057 115.975C183.177 116.022 183.298 116.07 183.421 116.115C183.6 116.186 183.781 116.254 183.962 116.319C184.153 116.389 184.341 116.46 184.535 116.525C184.603 116.55 184.671 116.573 184.741 116.598C184.965 116.673 185.188 116.749 185.415 116.822C185.437 116.829 185.46 116.837 185.485 116.844C185.721 116.92 185.958 116.995 186.196 117.066C186.215 117.073 186.235 117.079 186.254 117.083C186.511 117.161 186.772 117.237 187.031 117.309C187.413 117.415 187.798 117.516 188.182 117.609C188.253 117.626 188.323 117.644 188.393 117.659C188.6 117.709 188.803 117.757 189.009 117.802C189.228 117.852 189.449 117.898 189.668 117.943C189.889 117.988 190.11 118.033 190.329 118.074C190.447 118.096 190.565 118.119 190.681 118.139L190.99 118.192C191.204 118.229 191.417 118.262 191.634 118.297C191.64 118.297 191.646 118.298 191.651 118.3C191.895 118.338 192.136 118.373 192.38 118.403C192.614 118.436 192.848 118.463 193.082 118.491C193.129 118.496 193.18 118.501 193.23 118.506C193.423 118.529 193.617 118.551 193.811 118.569C193.866 118.574 193.921 118.579 193.976 118.584C194.167 118.602 194.359 118.619 194.55 118.632C194.588 118.637 194.627 118.639 194.665 118.639C194.836 118.654 195.007 118.667 195.178 118.674C195.299 118.684 195.417 118.689 195.537 118.697C195.6 118.7 195.661 118.702 195.723 118.705C195.889 118.715 196.055 118.72 196.224 118.725C196.427 118.732 196.631 118.737 196.832 118.742C197.076 118.747 197.322 118.75 197.566 118.75H197.571C197.81 118.75 198.051 118.747 198.29 118.742H198.381L198.644 118.735C198.78 118.732 198.916 118.727 199.049 118.722C199.306 118.712 199.559 118.7 199.813 118.684C199.914 118.679 200.017 118.672 200.117 118.667C200.163 118.664 200.211 118.659 200.256 118.657C200.414 118.647 200.57 118.637 200.728 118.624C200.892 118.612 201.058 118.596 201.221 118.579C201.432 118.559 201.643 118.536 201.854 118.514C202.02 118.496 202.186 118.476 202.35 118.456C202.372 118.454 202.394 118.45 202.415 118.446C202.573 118.428 202.732 118.408 202.888 118.385C203.074 118.36 203.257 118.333 203.441 118.305C203.461 118.302 203.478 118.3 203.498 118.297C203.815 118.247 204.134 118.197 204.454 118.139C204.788 118.079 205.122 118.013 205.454 117.945C205.577 117.92 205.698 117.893 205.821 117.868C205.889 117.852 205.959 117.84 206.025 117.825C206.128 117.802 206.228 117.78 206.329 117.754C206.347 117.752 206.367 117.747 206.384 117.744C206.525 117.714 206.663 117.679 206.804 117.644C207.086 117.576 207.362 117.506 207.639 117.43C207.762 117.4 207.885 117.367 208.003 117.335C208.038 117.325 208.073 117.314 208.106 117.304C208.616 117.161 209.123 117.009 209.624 116.849C209.846 116.779 210.064 116.706 210.283 116.628C210.753 116.467 211.219 116.298 211.681 116.12C211.804 116.075 211.927 116.025 212.05 115.977C212.231 115.904 212.412 115.831 212.591 115.758C212.752 115.691 212.912 115.623 213.076 115.552C213.156 115.52 213.237 115.484 213.317 115.449C213.558 115.344 213.8 115.236 214.039 115.128C214.199 115.052 214.358 114.979 214.516 114.904C214.768 114.783 215.016 114.66 215.265 114.537C215.328 114.504 215.388 114.471 215.449 114.441C215.607 114.361 215.766 114.278 215.926 114.197C216.18 114.062 216.434 113.926 216.686 113.785C216.771 113.74 216.854 113.692 216.939 113.644C217.216 113.489 217.49 113.33 217.761 113.169C218.362 112.81 218.955 112.435 219.539 112.043C219.684 111.948 219.83 111.847 219.974 111.749C220.245 111.563 220.511 111.372 220.778 111.181C220.806 111.161 220.831 111.141 220.858 111.123C220.992 111.025 221.125 110.927 221.258 110.827C221.535 110.618 221.809 110.407 222.083 110.191C222.088 110.188 222.095 110.181 222.103 110.175C222.226 110.077 222.349 109.979 222.47 109.881C222.844 109.577 223.214 109.268 223.576 108.949C223.754 108.795 223.93 108.637 224.104 108.479C224.234 108.361 224.365 108.242 224.493 108.122C224.752 107.878 225.006 107.637 225.257 107.39C225.383 107.27 225.506 107.144 225.632 107.018C225.755 106.893 225.881 106.767 226.004 106.639C226.047 106.596 226.089 106.551 226.132 106.505C226.258 106.372 226.384 106.236 226.509 106.103C226.617 105.988 226.723 105.867 226.831 105.746C227.012 105.545 227.195 105.344 227.374 105.14C227.383 105.129 227.393 105.118 227.404 105.108C227.414 105.095 227.424 105.085 227.432 105.075H227.429C231.083 100.85 233.798 95.8969 235.394 90.5439C236.99 85.1909 237.431 79.5599 236.688 74.0236C235.945 68.4873 234.035 63.172 231.084 58.4293C228.132 53.6867 224.207 49.6249 219.569 46.5127L219.569 46.5127Z" fill="#101010"/>
<g opacity="0.15">
<path opacity="0.15" d="M168.689 16.8486C169.19 18.6486 169.943 20.3683 170.928 21.9565C169.28 20.5412 167.808 18.9336 166.543 17.168C167.254 17.0336 167.969 16.9272 168.689 16.8486Z" fill="black"/>
<path opacity="0.15" d="M144.16 44.685C142.3 45.7004 140.56 46.9232 138.975 48.33C141.651 45.1646 143.608 41.455 144.708 37.4582C144.721 37.4102 144.735 37.3619 144.748 37.3138L144.785 37.1778C146.107 32.4076 148.673 28.0742 152.219 24.6208L152.498 24.3491L152.695 24.6848C153.782 26.5334 155.083 28.2475 156.571 29.7919C154.291 36.2255 149.854 41.5801 144.16 44.685Z" fill="black"/>
<path opacity="0.15" d="M157.265 27.5626L157.227 27.6987C157.214 27.7468 157.201 27.7951 157.188 27.8431C157.114 28.1076 157.036 28.3702 156.956 28.6316C156.16 26.5719 155.602 24.4285 155.291 22.2426L155.262 22.0571L155.414 21.9481C157.327 20.5737 159.405 19.4443 161.598 18.5864C159.629 21.2953 158.161 24.3355 157.265 27.5626Z" fill="black"/>
<path opacity="0.15" d="M131.682 54.3C133.328 53.3988 134.87 52.317 136.277 51.0747C133.466 54.3472 131.451 58.2262 130.39 62.4076C129.329 66.5891 129.251 70.9594 130.161 75.1761C131.072 79.3929 132.947 83.3415 135.638 86.7126C138.33 90.0837 141.766 92.7856 145.677 94.6068L145.804 94.6655L145.931 94.6082C148.043 93.6539 150.27 92.9776 152.556 92.5962C151.129 93.3231 149.799 94.2262 148.597 95.2842L148.19 95.6359L148.7 95.8043C149.141 95.9499 149.581 96.0839 150.009 96.2028C152.525 96.9035 155.126 97.2515 157.738 97.2368C169.603 97.1608 181.56 99.9039 193.277 105.39C195.287 106.329 197.371 107.1 199.508 107.693C208.823 110.286 218.767 109.353 227.436 105.073C222.549 110.726 216.157 114.876 209.005 117.042C201.852 119.207 194.232 119.3 187.03 117.308C184.892 116.715 182.808 115.944 180.799 115.005C169.082 109.519 157.124 106.776 145.259 106.852C142.648 106.867 140.047 106.519 137.531 105.818C137.103 105.699 136.662 105.565 136.222 105.419L135.712 105.251L136.118 104.899C137.321 103.841 138.651 102.938 140.078 102.211C137.792 102.593 135.564 103.269 133.452 104.223L133.325 104.28L133.198 104.222C128.502 102.036 124.506 98.5881 121.655 94.263C118.804 89.938 117.211 84.9059 117.054 79.7282C116.897 74.5506 118.181 69.4311 120.764 64.941C123.347 60.4509 127.127 56.7668 131.682 54.3L131.682 54.3Z" fill="black"/>
</g>
</g>
<defs>
<clipPath id="clip0_1344_68063">
<rect width="237.045" height="200" fill="white" transform="translate(0 0.25)"/>
</clipPath>
</defs>
</svg>
