<svg width="24" height="24" viewBox="0 0 24 24" fill="none" xmlns="http://www.w3.org/2000/svg">
<g id="Iconly/Light-Outline/Paper Plus">
<g id="Paper Plus">
<path id="Fill 1" fill-rule="evenodd" clip-rule="evenodd" d="M7.5729 3.51172C5.9149 3.51172 4.5399 4.85372 4.5009 6.50872V17.3397C4.4719 18.9867 5.7789 20.3387 7.4139 20.3667L7.5609 20.3657H15.5729C17.2149 20.3477 18.5539 18.9907 18.5519 17.3407V8.34172L13.9179 3.51172H7.5849H7.5729ZM7.3999 21.8667C4.9269 21.8237 2.9589 19.7867 3.0009 17.3267V6.49072C3.0579 4.00972 5.1069 2.01172 7.5699 2.01172H7.5879H14.2369C14.4409 2.01172 14.6359 2.09472 14.7779 2.24172L19.8439 7.52072C19.9769 7.65972 20.0519 7.84672 20.0519 8.03972V17.3397C20.0559 19.8087 18.0499 21.8397 15.5809 21.8657L7.3999 21.8667Z" fill="#212121"/>
<path id="Fill 3" fill-rule="evenodd" clip-rule="evenodd" d="M19.2976 8.98437H16.5436C14.7126 8.97937 13.2246 7.48737 13.2246 5.65937V2.75037C13.2246 2.33637 13.5606 2.00037 13.9746 2.00037C14.3886 2.00037 14.7246 2.33637 14.7246 2.75037V5.65937C14.7246 6.66337 15.5416 7.48137 16.5456 7.48437H19.2976C19.7116 7.48437 20.0476 7.82037 20.0476 8.23437C20.0476 8.64837 19.7116 8.98437 19.2976 8.98437Z" fill="#212121"/>
<path id="Fill 5" fill-rule="evenodd" clip-rule="evenodd" d="M13.7935 13.6641H8.89453C8.48053 13.6641 8.14453 13.3281 8.14453 12.9141C8.14453 12.5001 8.48053 12.1641 8.89453 12.1641H13.7935C14.2075 12.1641 14.5435 12.5001 14.5435 12.9141C14.5435 13.3281 14.2075 13.6641 13.7935 13.6641Z" fill="#212121"/>
<path id="Fill 7" fill-rule="evenodd" clip-rule="evenodd" d="M11.3445 16.1142C10.9305 16.1142 10.5945 15.7782 10.5945 15.3642V10.4642C10.5945 10.0502 10.9305 9.71423 11.3445 9.71423C11.7585 9.71423 12.0945 10.0502 12.0945 10.4642V15.3642C12.0945 15.7782 11.7585 16.1142 11.3445 16.1142Z" fill="#212121"/>
</g>
</g>
</svg>
