<svg width="24" height="24" viewBox="0 0 24 24" fill="none" xmlns="http://www.w3.org/2000/svg">
<g id="Iconly/Light-Outline/Paper Upload">
<g id="Paper Upload">
<g id="Group 3">
<mask id="mask0_430_8522" style="mask-type:luminance" maskUnits="userSpaceOnUse" x="3" y="2" width="18" height="20">
<path id="Clip 2" fill-rule="evenodd" clip-rule="evenodd" d="M3.00024 2.0116H20.0524V21.8651H3.00024V2.0116Z" fill="white"/>
</mask>
<g mask="url(#mask0_430_8522)">
<path id="Fill 1" fill-rule="evenodd" clip-rule="evenodd" d="M7.57331 3.5116C5.91631 3.5116 4.54031 4.8536 4.50131 6.5086V17.2276C4.46531 18.9286 5.80531 20.3286 7.49031 20.3656H15.5733C17.2423 20.3056 18.5633 18.9286 18.5523 17.2326V8.3396L13.9183 3.5116H7.58531H7.57331ZM7.58531 21.8656H7.45931C4.94731 21.8116 2.94731 19.7236 3.00131 17.2116V6.4906C3.06031 4.0096 5.10831 2.0116 7.57031 2.0116H7.58831H14.2373C14.4413 2.0116 14.6363 2.0946 14.7783 2.2416L19.8443 7.5186C19.9773 7.6576 20.0523 7.8446 20.0523 8.0376V17.2276C20.0683 19.7366 18.1123 21.7756 15.5993 21.8656H7.58531Z" fill="#212121"/>
</g>
</g>
<path id="Fill 4" fill-rule="evenodd" clip-rule="evenodd" d="M19.2978 8.98424H16.5438C14.7128 8.97924 13.2258 7.48724 13.2258 5.65924V2.75024C13.2258 2.33624 13.5618 2.00024 13.9758 2.00024C14.3898 2.00024 14.7258 2.33624 14.7258 2.75024V5.65924C14.7258 6.66324 15.5418 7.48124 16.5458 7.48424H19.2978C19.7118 7.48424 20.0478 7.82024 20.0478 8.23424C20.0478 8.64824 19.7118 8.98424 19.2978 8.98424Z" fill="#212121"/>
<path id="Fill 6" fill-rule="evenodd" clip-rule="evenodd" d="M11.1416 16.7002C10.7276 16.7002 10.3916 16.3642 10.3916 15.9502V9.90918C10.3916 9.49518 10.7276 9.15918 11.1416 9.15918C11.5556 9.15918 11.8916 9.49518 11.8916 9.90918V15.9502C11.8916 16.3642 11.5556 16.7002 11.1416 16.7002Z" fill="#212121"/>
<path id="Fill 8" fill-rule="evenodd" clip-rule="evenodd" d="M8.79712 13.0145C8.60612 13.0145 8.41412 12.9415 8.26812 12.7955C7.97512 12.5035 7.97312 12.0295 8.26612 11.7355L10.6101 9.37949C10.8921 9.09649 11.3921 9.09649 11.6731 9.37949L14.0191 11.7355C14.3111 12.0295 14.3101 12.5035 14.0171 12.7955C13.7231 13.0875 13.2481 13.0875 12.9561 12.7935L11.1421 10.9715L9.32812 12.7935C9.18212 12.9415 8.98912 13.0145 8.79712 13.0145Z" fill="#212121"/>
</g>
</g>
</svg>
