<svg width="186" height="180" viewBox="0 0 186 180" fill="none" xmlns="http://www.w3.org/2000/svg">
<circle cx="95.5" cy="90.5" r="70.5" fill="url(#paint0_linear_1414_12550)"/>
<circle cx="178.467" cy="27.5" r="7.5" fill="url(#paint1_linear_1414_12550)"/>
<circle cx="20.0332" cy="10" r="10" fill="url(#paint2_linear_1414_12550)"/>
<circle cx="10.0332" cy="133" r="5" fill="url(#paint3_linear_1414_12550)"/>
<circle cx="165.533" cy="160.5" r="2.5" fill="url(#paint4_linear_1414_12550)"/>
<path fill-rule="evenodd" clip-rule="evenodd" d="M94.8319 114.871C95.1041 115.013 95.4085 115.086 95.713 115.083C96.0174 115.081 96.3193 115.006 96.594 114.861L105.365 110.173C107.852 108.847 109.8 107.364 111.32 105.638C114.624 101.878 116.428 97.0781 116.396 92.129L116.292 75.8041C116.282 73.9238 115.047 72.2459 113.22 71.636L96.9034 66.1614C95.9208 65.8288 94.8443 65.836 93.8791 66.1783L77.6239 71.8482C75.8074 72.4822 74.5947 74.172 74.6046 76.0548L74.7085 92.3677C74.7407 97.324 76.6067 102.102 79.9652 105.824C81.4996 107.526 83.4647 108.987 85.9792 110.291L94.8319 114.871ZM92.51 95.6845C92.8763 96.0364 93.3514 96.21 93.8266 96.2052C94.3018 96.2028 94.7745 96.0244 95.1358 95.6676L104.721 86.2178C105.441 85.5067 105.434 84.364 104.706 83.6625C103.976 82.961 102.801 82.9659 102.08 83.677L93.7994 91.8395L90.4088 88.5803C89.6787 87.8788 88.5056 87.886 87.7829 88.5972C87.0627 89.3083 87.0702 90.4509 87.8002 91.1524L92.51 95.6845Z" fill="white"/>
<circle cx="106.533" cy="4.5" r="2.5" fill="url(#paint5_linear_1414_12550)"/>
<circle cx="62.5332" cy="176.5" r="3.5" fill="url(#paint6_linear_1414_12550)"/>
<circle cx="122.033" cy="171" r="1" fill="url(#paint7_linear_1414_12550)"/>
<circle cx="170.533" cy="110.5" r="2.5" fill="url(#paint8_linear_1414_12550)"/>
<circle cx="1.0332" cy="75" r="1" fill="url(#paint9_linear_1414_12550)"/>
<defs>
<linearGradient id="paint0_linear_1414_12550" x1="166" y1="161" x2="-1.77734" y2="112.355" gradientUnits="userSpaceOnUse">
<stop stop-color="#101010"/>
<stop offset="1" stop-color="#313130"/>
</linearGradient>
<linearGradient id="paint1_linear_1414_12550" x1="185.967" y1="35" x2="168.118" y2="29.8249" gradientUnits="userSpaceOnUse">
<stop stop-color="#101010"/>
<stop offset="1" stop-color="#313130"/>
</linearGradient>
<linearGradient id="paint2_linear_1414_12550" x1="30.0332" y1="20" x2="6.235" y2="13.0999" gradientUnits="userSpaceOnUse">
<stop stop-color="#101010"/>
<stop offset="1" stop-color="#313130"/>
</linearGradient>
<linearGradient id="paint3_linear_1414_12550" x1="15.0332" y1="138" x2="3.1341" y2="134.55" gradientUnits="userSpaceOnUse">
<stop stop-color="#101010"/>
<stop offset="1" stop-color="#313130"/>
</linearGradient>
<linearGradient id="paint4_linear_1414_12550" x1="168.033" y1="163" x2="162.084" y2="161.275" gradientUnits="userSpaceOnUse">
<stop stop-color="#101010"/>
<stop offset="1" stop-color="#313130"/>
</linearGradient>
<linearGradient id="paint5_linear_1414_12550" x1="109.033" y1="7" x2="103.084" y2="5.27498" gradientUnits="userSpaceOnUse">
<stop stop-color="#101010"/>
<stop offset="1" stop-color="#313130"/>
</linearGradient>
<linearGradient id="paint6_linear_1414_12550" x1="66.0332" y1="180" x2="57.7038" y2="177.585" gradientUnits="userSpaceOnUse">
<stop stop-color="#101010"/>
<stop offset="1" stop-color="#313130"/>
</linearGradient>
<linearGradient id="paint7_linear_1414_12550" x1="123.033" y1="172" x2="120.653" y2="171.31" gradientUnits="userSpaceOnUse">
<stop stop-color="#101010"/>
<stop offset="1" stop-color="#313130"/>
</linearGradient>
<linearGradient id="paint8_linear_1414_12550" x1="173.033" y1="113" x2="167.084" y2="111.275" gradientUnits="userSpaceOnUse">
<stop stop-color="#101010"/>
<stop offset="1" stop-color="#313130"/>
</linearGradient>
<linearGradient id="paint9_linear_1414_12550" x1="2.0332" y1="76" x2="-0.346617" y2="75.31" gradientUnits="userSpaceOnUse">
<stop stop-color="#101010"/>
<stop offset="1" stop-color="#313130"/>
</linearGradient>
</defs>
</svg>
