<svg width="24" height="24" viewBox="0 0 24 24" fill="none" xmlns="http://www.w3.org/2000/svg">
<path d="M15.6 11.4005C14.8587 10.9529 14.155 10.4456 13.496 9.88372L10.016 5.35412C9.90789 5.21123 9.75929 5.10418 9.58952 5.04688C9.41976 4.98958 9.23667 4.98469 9.06409 5.03284C8.8915 5.08099 8.7374 5.17996 8.62182 5.31687C8.50623 5.45378 8.43452 5.62231 8.416 5.80052H8.4V8.20052H5.5344C5.42824 8.20092 5.32306 8.18019 5.225 8.13954C5.12693 8.09888 5.03794 8.03912 4.9632 7.96372C4.9632 7.96372 4.4 6.60052 3.6 6.60052H2.8C2.58783 6.60052 2.38434 6.68481 2.23431 6.83484C2.08429 6.98487 2 7.18835 2 7.40052V14.6005H10.8C13.2 14.6005 14 16.2005 16.4 16.2005H22.8V15.4005C22.8 13.0005 17.2752 12.3509 15.6 11.4005ZM15.6 17.8005C14.7381 17.7762 13.8972 17.5299 13.1584 17.0853C12.1975 16.5277 11.1107 16.2233 10 16.2005H2V18.6005C2 18.8127 2.08429 19.0162 2.23431 19.1662C2.38434 19.3162 2.58783 19.4005 2.8 19.4005H9.2C9.41217 19.4005 9.61566 19.3162 9.76568 19.1662C9.91571 19.0162 10 18.8127 10 18.6005V17.8005C10.8618 17.8251 11.7028 18.0714 12.4416 18.5157C13.4025 19.0733 14.4893 19.3778 15.6 19.4005H22C22.2122 19.4005 22.4157 19.3162 22.5657 19.1662C22.7157 19.0162 22.8 18.8127 22.8 18.6005V17.8005H15.6Z" fill="#212121"/>
</svg>
