<svg width="25" height="24" viewBox="0 0 25 24" fill="none" xmlns="http://www.w3.org/2000/svg">
<path fill-rule="evenodd" clip-rule="evenodd" d="M18.3685 8.3818H22.5996C22.5996 4.98459 20.5641 3 17.1152 3H8.08405C4.63517 3 2.59961 4.98459 2.59961 8.33847V15.6615C2.59961 19.0154 4.63517 21 8.08405 21H17.1152C20.5641 21 22.5996 19.0154 22.5996 15.6615V15.3495H18.3685C16.4048 15.3495 14.8129 13.7975 14.8129 11.883C14.8129 9.96849 16.4048 8.41647 18.3685 8.41647V8.3818ZM18.3685 9.87241H21.8529C22.2653 9.87241 22.5996 10.1983 22.5996 10.6004V13.131C22.5948 13.5311 22.2633 13.8543 21.8529 13.8589H18.4485C17.4544 13.872 16.5851 13.2084 16.3596 12.2643C16.2467 11.6783 16.4052 11.0736 16.7927 10.6122C17.1802 10.1509 17.757 9.88007 18.3685 9.87241ZM18.5196 12.533H18.8485C19.2707 12.533 19.6129 12.1993 19.6129 11.7877C19.6129 11.3761 19.2707 11.0424 18.8485 11.0424H18.5196C18.3177 11.0401 18.1232 11.1166 17.9796 11.255C17.836 11.3934 17.7552 11.5821 17.7552 11.779C17.7551 12.1921 18.096 12.5282 18.5196 12.533ZM7.33739 8.3818H12.9818C13.404 8.3818 13.7463 8.04812 13.7463 7.63649C13.7463 7.22487 13.404 6.89119 12.9818 6.89119H7.33739C6.91864 6.89116 6.57781 7.2196 6.57294 7.62783C6.57291 8.04087 6.91376 8.37705 7.33739 8.3818Z" fill="#212121"/>
</svg>
