<svg width="24" height="24" viewBox="0 0 24 24" fill="none" xmlns="http://www.w3.org/2000/svg">
<path d="M11.75 14H14.75V12.5H12.5V8.75H11V13.25L11.75 14Z" fill="#212121"/>
<path fill-rule="evenodd" clip-rule="evenodd" d="M8.75 6.0035C7.60946 6.66164 6.66238 7.60858 6.00408 8.74902C5.34578 9.88947 4.99947 11.1832 5 12.5C4.99947 13.8168 5.34578 15.1105 6.00408 16.251C6.66238 17.3914 7.60946 18.3384 8.75 18.9965V22.25L9.5 23H15.5L16.25 22.25V18.9965C17.3905 18.3384 18.3376 17.3914 18.9959 16.251C19.6542 15.1105 20.0005 13.8168 20 12.5C20.0005 11.1832 19.6542 9.88947 18.9959 8.74902C18.3376 7.60858 17.3905 6.66164 16.25 6.0035V2.75L15.5 2H9.5L8.75 2.75V6.0035ZM18.5 12.5C18.5 14.0913 17.8679 15.6174 16.7426 16.7426C15.6174 17.8679 14.0913 18.5 12.5 18.5C10.9087 18.5 9.38258 17.8679 8.25736 16.7426C7.13214 15.6174 6.5 14.0913 6.5 12.5C6.5 10.9087 7.13214 9.38258 8.25736 8.25736C9.38258 7.13214 10.9087 6.5 12.5 6.5C14.0913 6.5 15.6174 7.13214 16.7426 8.25736C17.8679 9.38258 18.5 10.9087 18.5 12.5Z" fill="#212121"/>
</svg>
